<svg width="396" height="314" viewBox="0 0 396 314" fill="none" xmlns="http://www.w3.org/2000/svg">
<g clip-path="url(#clip0_2_3)">
<g clip-path="url(#clip1_2_3)">
<path d="M8.05203 142.966C25.2595 126.776 60.9016 126.038 83.3159 125.232C99.327 89.639 133.153 60.7456 171.944 53.575C189.133 50.399 208.38 50.9201 225.401 54.8962C233.342 56.7509 240.774 60.1067 248.485 62.5879C274.259 31.5793 311.01 8.52287 351.078 1.4701C361.312 -0.328757 364.982 -2.56803 368.714 8.86403C370.164 13.2991 371.491 19.3594 372.197 23.9868C378.948 68.3132 361.759 114.407 332.278 147.066L331.999 148.511L335.693 166.593C348.004 172.12 360.637 178.056 371.85 185.617C386.9 195.765 403.426 211.893 392.436 231.414C379.165 254.979 328.237 258.918 304.099 260.872C264.769 306.997 208.541 324.191 151.005 301.166C148.854 300.304 140.759 295.999 139.531 295.974C137.083 295.925 123.012 301.334 118.642 302.314C96.5376 307.251 72.1088 306.829 52.0128 295.397C35.729 286.136 28.8423 275.132 34.7868 256.238C35.6856 253.378 38.5865 244.428 42.7148 245.736C46.1365 246.822 41.8408 258.763 41.8718 262.075C42.1507 293.574 83.068 284.027 101.379 276.354C113.85 271.131 108.148 271.876 101.701 264.904C90.029 252.281 81.8964 235.942 75.9767 219.932C63.3315 214.939 50.9094 209.071 39.225 202.123C21.0816 191.33 -16.4326 166.004 8.05823 142.96L8.05203 142.966ZM357.395 13.6837C357.283 13.4914 357.55 12.8401 357.37 12.4742C341.452 14.4653 327.022 19.5765 312.573 26.2199C311.823 26.5611 310.366 26.6293 310.285 26.7161C309.343 27.752 315.591 34.3148 316.484 35.3941C327.939 49.2515 342.735 60.2493 361.114 62.6933C362.825 49.512 362.862 35.9648 360.308 22.8641C359.695 19.6944 358.938 16.444 357.395 13.6837ZM358.635 73.8524C346.746 71.8303 335.328 66.4709 325.583 59.4678C319.844 55.3428 313.484 49.2701 308.711 44.0968C307.322 42.5957 300.163 33.0184 299.438 33.0184C297.888 33.0184 277.55 48.8421 274.941 51.1992C253.053 70.9619 233.069 102.665 224.428 130.913C223.876 132.706 221.62 142.234 221.948 143.27C223.74 148.877 232.3 155.632 236.205 160.055C240.414 154.392 244.604 148.654 249.21 143.307C251.752 140.361 261.651 129.127 264.508 128.221C268.407 126.987 273.639 129.691 274.29 133.736C275.244 139.66 269.269 149.001 266.374 154.28C264.911 156.947 255.08 172.256 255.074 173.367C255.068 175.041 273.038 182.206 276.782 180.822C279.335 179.88 286.451 174.595 289.142 172.715C322.156 149.591 349.423 113.483 358.635 73.8462V73.8524ZM146.021 202.254C157.545 205.74 169.198 208.947 180.951 211.602L183.839 206.894C179.699 201.906 178.291 200.014 180.734 193.57C184.633 183.248 197.464 176.332 207.338 173.044C205.975 166.692 207.338 160.775 208.008 154.491C201.009 154.95 193.714 156.432 187.063 158.653C181.354 160.564 173.289 166.072 167.543 164.887C158.561 163.039 164.134 150.025 166.173 144.572C175.44 119.81 190.019 95.4139 218.316 91.3014C220.43 90.9974 229.715 90.8113 230.224 90.495C230.546 90.2965 233.032 85.0054 233.782 83.8268C236.007 80.3283 238.369 76.8671 240.848 73.5361C214.2 61.7939 182.581 59.6787 155.164 70.2795C117.824 84.72 90.122 121.224 83.5948 160.557C83.1485 163.243 81.4191 174.985 82.789 176.511C102.575 188.005 124.184 195.641 146.021 202.247V202.254ZM179.494 142.705L176.711 150.775C187.155 145.726 198.828 143.164 210.462 143.295C212.533 131.9 216.066 120.542 220.405 109.83C221.155 107.969 223.25 105.134 223.511 103.31C223.721 101.865 222.426 102.293 221.353 102.392C197.743 104.582 187.633 122.943 179.494 142.699V142.705ZM72.8774 205.975C73.615 210.404 148.141 232.363 157.65 235.005C160.396 235.855 162.51 232.747 163.997 230.787C165.665 229.559 167.27 227.99 168.653 226.451C169.316 225.713 173.066 221.309 172.669 220.863C147.906 214.746 122.504 207.594 99.1038 197.397C84.9895 191.243 49.1304 173.491 47.5188 156.588C46.2109 142.91 63.9452 140.913 73.6212 139.418C74.3527 139.306 76.6276 139.263 76.5904 138.363C61.131 138.276 44.438 139.077 29.6295 143.778C21.0134 146.514 8.04583 151.892 11.8332 163.15C17.2322 179.185 54.7092 197.719 69.7471 205.064C70.7637 205.56 71.6811 206.069 72.8712 205.969L72.8774 205.975ZM259.456 145.807C258.254 146.278 257.448 146.421 256.655 147.661L250.158 156.352C243.978 163.318 229.87 182.987 227.23 191.411C227.131 191.727 227.062 192.422 227.527 192.329C238.71 182.485 246.681 172.188 253.983 159.255C256.283 155.179 259.717 149.417 261.316 145.193C261.707 144.169 262.705 142.128 261.018 142.718C259.438 143.27 259.779 145.118 259.456 145.813V145.807ZM74.737 150.155C71.8236 149.721 60.0772 152.171 59.3272 154.931C58.0007 159.807 66.9825 167.244 70.7203 169.372C72.1398 169.632 71.5571 168.745 71.6377 167.827C72.1336 161.835 73.0324 155.905 74.7432 150.155H74.737ZM218.552 155.111C218.57 159.379 215.458 166.19 217.932 169.688C219.494 171.89 222.68 173.987 224.434 176.189L230.323 167.213C225.544 164.385 222.327 159.174 218.552 155.111ZM319.577 161.934C318.97 161.389 318.139 162.536 317.717 162.859C311.265 167.833 305.14 174.378 298.44 179.545C296.419 181.102 284.964 188.502 284.524 189.227C284.084 189.953 286.575 203.19 286.718 205.665C287.065 211.726 286.47 217.891 286.73 223.958C302.667 211.682 320.073 197.626 321.455 175.854C320.823 173.788 320.525 162.79 319.571 161.928L319.577 161.934ZM265.035 188.595L249.886 181.12L242.726 190.146C251.225 195.927 257.089 193.179 265.035 188.595ZM192.511 194.19C190.1 197.632 191.848 195.759 193.664 198.309C197.799 204.115 194.47 209.865 191.594 215.292C174.609 247.337 126.458 283.115 91.4733 291.886L82.1754 294.051C123.979 297.041 160.47 276.019 191.563 250.618C197.929 245.414 204.574 238.206 211.157 233.628C212.415 232.754 213.865 231.488 215.44 231.401V240.396C215.44 240.501 213.903 242.691 215.737 241.94C217.423 241.246 223.337 236.562 225.029 235.105C232.592 228.591 241.245 216.508 240.234 205.969C239.801 204.909 240.867 202.117 240.563 201.59C240.389 201.286 234.581 198.65 234.228 198.619C232.839 198.489 227.868 205.845 220.851 204.58C212.192 203.01 217.417 191.237 219.085 185.927L214.423 181.896C207.53 184.147 196.763 188.086 192.499 194.184L192.511 194.19ZM359.664 199.357C355.926 194.636 345.952 187.906 340.603 184.625C339.834 184.153 335.483 181.331 335.08 181.784C334.293 196.745 330.338 211.471 324.536 225.192C330.983 224.777 337.534 223.53 343.752 221.787C351.097 219.727 365.311 215.447 362.67 205.33C362.527 204.784 359.998 199.779 359.657 199.357H359.664ZM275.567 194.81C274.631 193.824 254.987 207.874 250.803 205.38L247.673 222.717L273.391 225.242C274.327 225.223 275.957 225.447 276.54 224.622C277.904 222.68 276.478 198.885 275.567 194.81ZM229.083 245.048C236.583 245.972 244.171 246.934 251.714 247.529C284.084 250.085 351.432 253.118 377.528 232.015C390.341 221.65 383.621 210.038 373.518 201.013C381.489 227.525 343.454 234.521 324.846 236.364C313.564 237.48 299.022 235.396 288.931 237.021C286.303 237.443 284.945 240.123 281.468 240.141C276.571 240.172 276.806 237.108 275.145 236.482C271.469 235.098 258.601 234.956 253.642 234.428C251.039 234.149 241.958 232.121 240.507 233.219C239.875 233.697 239.218 235.253 238.393 236.072C235.344 239.124 232.306 242.182 229.077 245.042L229.083 245.048ZM318.653 208.457V209.077C319.056 208.872 319.056 208.661 318.653 208.457ZM312.765 226.445L318.337 209.697L300.987 226.445H312.765ZM150.36 244.44L90.8658 226.129C93.835 233.771 98.0191 241.041 102.742 247.734C105.061 251.015 116.987 265.704 119.968 266.523C121.859 267.044 129.645 261.61 131.709 260.202C133.327 259.091 151.154 245.47 150.36 244.446V244.44ZM289.21 260.568C265.643 260.016 242.218 257.77 218.849 254.985C217.43 254.818 215.93 255.159 214.522 254.973C212.39 254.687 207.791 252.913 206.495 253.099C205.336 253.261 190.689 265.71 188.11 267.633C177.182 275.765 165.764 283.494 153.466 289.405C180.411 302.673 212.198 303.467 240.396 293.282C258.843 286.62 275.827 274.71 289.21 260.568Z" fill="#01314E"/>
<path d="M124.171 39.2647C125.182 40.2448 124.841 42.36 123.675 43.123C122.2 44.0906 115.623 45.0335 113.001 46.088C107.974 48.1102 105.916 50.6224 104.007 55.6964C103.276 57.6317 100.827 73.0212 96.8475 66.8679C92.9486 60.8386 96.333 52.8554 87.5682 47.6759C84.3759 45.7902 73.7824 44.5186 73.5283 41.3055C73.2741 38.0924 80.9294 37.4349 83.57 36.492C88.7397 34.6435 90.7233 33.0866 93.0106 27.9505C93.9714 25.7981 96.395 11.308 100.474 15.5384C101.887 17.0085 103.034 25.1716 104.596 28.1552C106.071 30.9652 109.896 34.8792 112.828 36.0454C115.233 37.0069 122.857 37.9993 124.171 39.2709V39.2647Z" fill="#F79827"/>
<path d="M331.46 295.863C333.995 297.513 336.45 296.39 337.404 297.922C338.006 298.89 337.534 300.161 337.448 300.447C336.853 302.394 332.036 303.356 330.177 304.968C327.66 307.152 326.259 313.603 324.207 313.938C320.259 314.577 320.829 310.179 319.713 307.878C317.531 303.387 309.876 302.574 309.628 299.919C309.312 296.557 315.734 296.377 317.965 293.995C319.856 291.986 322.106 279.859 326.302 287.017C327.567 289.176 327.387 290.143 328.72 292.519C329.439 293.797 330.115 294.994 331.454 295.869L331.46 295.863Z" fill="#F15E34"/>
<path d="M52.3289 103.521C51.6533 103.937 51.0644 104.061 50.5375 103.974C48.1014 103.565 48.4486 99.0799 45.6158 95.8605C41.9958 91.7418 35.9335 92.7963 35.7785 91.0781C35.5988 89.1241 38.2704 89.8437 42.1074 86.4879C44.1405 84.7076 45.312 83.6779 45.9133 81.8853C46.1427 81.2029 46.4216 79.9934 47.215 78.2689C47.4754 77.6983 47.8473 77.0656 48.4052 76.346C51.8888 71.8427 53.0789 78.8334 54.3807 80.8866C57.0523 85.0984 60.2694 84.6456 63.2757 86.8724C68.4888 90.7369 58.6577 92.7342 56.4262 94.9239C54.3683 96.9461 52.7318 103.273 52.3227 103.527L52.3289 103.521Z" fill="#F15E34"/>
<path d="M229.536 23.1308C239.199 21.1645 240.718 33.6635 232.97 35.2514C224.199 37.0503 221.67 24.7312 229.536 23.1308Z" fill="#F79827"/>
<path d="M146.021 202.254C124.184 195.648 102.575 188.012 82.789 176.518C81.4253 174.985 83.1485 163.249 83.5948 160.564C90.122 121.224 117.824 84.7262 155.164 70.2857C182.581 59.6849 214.2 61.7939 240.848 73.5423C238.369 76.8733 236.013 80.3283 233.782 83.833C233.032 85.0116 230.54 90.3027 230.224 90.5012C229.715 90.8175 220.43 90.9974 218.316 91.3076C190.019 95.4201 175.44 119.816 166.173 144.579C164.134 150.031 158.561 163.045 167.543 164.893C173.289 166.078 181.347 160.564 187.063 158.659C193.714 156.439 201.009 154.956 208.008 154.497C207.338 160.781 205.975 166.698 207.338 173.05C197.464 176.338 184.633 183.254 180.734 193.576C180.083 192.509 180.145 192.199 178.744 192.434C173.729 193.284 167.041 196.485 161.648 197.732C156.255 198.979 150.292 199.692 144.788 200.405L146.028 202.26L146.021 202.254ZM144.602 90.1104C139.383 91.3138 141.199 101.158 147.912 98.9992C153.082 97.3368 151.662 88.4852 144.602 90.1104ZM121.438 117.484C116.665 122.329 123.198 131.769 129.942 126.925C137.194 121.714 128.144 110.686 121.438 117.484ZM107.41 154.596C103.034 155.905 108.11 163.795 111.241 159.069C113.02 156.383 110.137 153.778 107.41 154.596Z" fill="#0A83B3"/>
<path d="M358.635 73.8524C349.423 113.489 322.156 149.597 289.142 172.721C286.458 174.601 279.335 179.886 276.782 180.829C273.038 182.212 255.068 175.048 255.074 173.373C255.074 172.262 264.911 156.953 266.374 154.286C269.269 149.014 275.244 139.666 274.29 133.742C273.639 129.704 268.407 126.993 264.508 128.228C261.651 129.133 251.758 140.361 249.21 143.313C244.598 148.66 240.414 154.398 236.205 160.061C232.3 155.638 223.74 148.883 221.948 143.276C221.62 142.24 223.876 132.712 224.428 130.92C233.063 102.671 253.053 70.9619 274.941 51.2054C277.55 48.8483 297.888 33.0184 299.438 33.0246C300.157 33.0246 307.322 42.6019 308.711 44.103C313.484 49.2763 319.844 55.349 325.583 59.474C335.328 66.4771 346.746 71.8303 358.635 73.8586V73.8524ZM272.182 112.584C295.911 144.87 342.413 106.84 319.837 77.0035C297.51 47.4961 250.14 82.58 272.182 112.584Z" fill="#FBF5E9"/>
<path d="M289.21 260.568C275.821 274.704 258.843 286.62 240.396 293.282C212.198 303.467 180.405 302.673 153.466 289.405C165.764 283.494 177.182 275.765 188.11 267.633C190.689 265.71 205.336 253.261 206.495 253.099C207.791 252.913 212.39 254.687 214.522 254.973C215.93 255.159 217.43 254.818 218.849 254.985C242.218 257.77 265.643 260.016 289.21 260.568ZM228.903 271.845C223.703 273.408 225.63 282.923 232.362 280.901C237.395 279.387 235.406 269.891 228.903 271.845Z" fill="#00517C"/>
<path d="M72.8774 205.975C71.6873 206.075 70.7699 205.572 69.7533 205.07C54.7154 197.726 17.2322 179.191 11.8394 163.156C8.05203 151.898 21.0196 146.52 29.6357 143.785C44.4442 139.083 61.1372 138.283 76.5966 138.369C76.6338 139.269 74.3589 139.306 73.6274 139.424C63.9514 140.919 46.217 142.916 47.525 156.594C49.1366 173.497 84.9957 191.256 99.11 197.403C122.504 207.601 147.906 214.753 172.675 220.869C173.072 221.315 169.322 225.719 168.659 226.458C167.276 227.99 165.665 229.565 164.004 230.794C165.9 228.306 167.227 227.922 163.39 226.762C132.409 217.37 100.319 211.186 69.7843 200.089C68.7677 199.723 68.0053 198.681 67.6023 198.544C66.0589 198.017 66.9825 200.027 66.6478 200.331C66.1519 200.784 64.0877 199.897 63.5856 200.703C66.3626 203.19 70.1934 203.848 73.4849 205.417C73.4043 205.672 72.8712 205.926 72.8774 205.982V205.975Z" fill="#FAB53B"/>
<path d="M192.511 194.19C193.844 195.734 194.272 193.03 194.383 192.962C195.722 192.161 195.486 193.824 196.032 194.221C196.54 194.593 197.656 194.506 197.972 194.934C198.53 195.685 198.04 198.563 199.602 199.816C200.916 200.87 206.446 201.168 206.774 201.64C207.239 202.316 202.032 210.733 201.282 212.575C200.259 215.106 197.241 223.331 201.009 224.454C206.291 226.03 214.361 219.833 218.223 216.502C219.68 215.249 221.986 210.553 223.176 214.033C224.013 216.496 224.168 223.697 228.029 222.624C230.961 221.812 239.044 205.578 238.393 201.627C239.429 201.894 240.179 205.225 240.247 205.969C241.257 216.508 232.61 228.591 225.042 235.105C223.349 236.562 217.436 241.246 215.75 241.94C213.915 242.691 215.452 240.501 215.452 240.396V231.401C213.872 231.488 212.421 232.754 211.169 233.628C204.586 238.206 197.941 245.414 191.575 250.618C160.483 276.019 123.991 297.035 82.1877 294.051L91.4857 291.886C126.471 283.115 174.622 247.337 191.606 215.292C194.482 209.865 197.805 204.115 193.676 198.309C191.86 195.759 190.118 197.633 192.524 194.19H192.511Z" fill="#F79827"/>
<path d="M229.083 245.048C232.306 242.188 235.35 239.13 238.4 236.078C239.224 235.253 239.881 233.696 240.513 233.225C241.964 232.133 251.045 234.156 253.648 234.435C258.601 234.968 271.469 235.105 275.151 236.488C276.813 237.114 276.577 240.179 281.474 240.148C284.951 240.123 286.309 237.449 288.937 237.027C299.029 235.402 313.571 237.486 324.852 236.37C343.454 234.528 381.495 227.531 373.524 201.019C383.621 210.045 390.347 221.657 377.534 232.022C351.438 253.124 284.09 250.091 251.721 247.535C244.183 246.94 236.59 245.978 229.089 245.054L229.083 245.048Z" fill="#F15E34"/>
<path d="M357.395 13.6837C358.945 16.444 359.695 19.6944 360.308 22.8641C362.856 35.9648 362.819 49.512 361.114 62.6933C342.735 60.2493 327.939 49.2515 316.484 35.3941C318.009 32.1313 321.579 32.274 324.152 30.9714C333.623 26.1889 341.26 21.1955 351.481 17.3807C353.62 16.5805 357.804 16.8845 357.395 13.6837Z" fill="#F15E34"/>
<path d="M319.577 161.934C320.532 162.79 320.829 173.795 321.461 175.86C320.073 197.632 302.673 211.688 286.737 223.964C286.476 217.898 287.071 211.732 286.724 205.672C286.582 203.197 284.096 189.941 284.53 189.234C284.964 188.527 296.425 181.108 298.446 179.551C305.147 174.384 311.265 167.84 317.724 162.865C318.145 162.542 318.976 161.395 319.583 161.941L319.577 161.934Z" fill="#F15E34"/>
<path d="M150.36 244.44C151.154 245.464 133.327 259.085 131.709 260.196C129.651 261.61 121.859 267.037 119.968 266.516C116.993 265.704 105.061 251.009 102.742 247.728C98.0129 241.041 93.835 233.765 90.8658 226.123L150.36 244.434V244.44Z" fill="#00517C"/>
<path d="M240.241 205.975C240.172 205.231 239.422 201.9 238.387 201.633C239.044 205.578 230.955 221.812 228.023 222.63C224.155 223.704 224.006 216.502 223.17 214.039C221.986 210.559 219.68 215.255 218.217 216.508C214.349 219.839 206.284 226.042 201.003 224.46C197.241 223.338 200.253 215.112 201.276 212.582C202.02 210.733 207.233 202.322 206.768 201.646C206.446 201.174 200.91 200.877 199.596 199.822C198.034 198.569 198.53 195.691 197.966 194.94C197.65 194.519 196.528 194.599 196.026 194.227C195.486 193.83 195.722 192.161 194.377 192.968C194.265 193.036 193.844 195.741 192.505 194.196C196.763 188.105 207.537 184.16 214.429 181.908L219.091 185.94C217.423 191.25 212.198 203.023 220.857 204.592C227.874 205.864 232.846 198.507 234.234 198.631C234.581 198.662 240.396 201.298 240.569 201.602C240.867 202.123 239.807 204.921 240.241 205.982V205.975Z" fill="#FAB53B"/>
<path d="M72.8774 205.975C72.8712 205.92 73.3981 205.665 73.4849 205.411C70.1934 203.842 66.3626 203.184 63.5856 200.697C64.0877 199.89 66.1519 200.777 66.6478 200.325C66.9825 200.014 66.0589 198.011 67.6023 198.538C68.0053 198.675 68.7677 199.71 69.7843 200.083C100.319 211.18 132.409 217.364 163.39 226.755C167.227 227.915 165.9 228.3 164.004 230.787C162.516 232.741 160.408 235.855 157.656 235.005C148.147 232.363 73.6212 210.404 72.8836 205.975H72.8774Z" fill="#F79827"/>
<path d="M220.405 109.83C216.066 120.542 212.533 131.9 210.462 143.295C198.828 143.164 187.162 145.726 176.711 150.775L179.494 142.705C181.93 139.777 183.43 136.155 185.705 133.103C194.34 121.535 206.942 114.42 220.405 109.83Z" fill="#F15E34"/>
<path d="M275.567 194.81C276.478 198.885 277.897 222.68 276.54 224.622C275.957 225.453 274.327 225.229 273.391 225.242L247.673 222.717L250.803 205.38C254.987 207.874 274.631 193.818 275.567 194.81Z" fill="#00517C"/>
<path d="M146.021 202.254L144.782 200.399C150.286 199.692 156.249 198.972 161.642 197.726C167.035 196.479 173.723 193.278 178.738 192.428C180.139 192.192 180.077 192.496 180.728 193.57C178.291 200.021 179.692 201.913 183.833 206.894L180.944 211.602C169.186 208.94 157.538 205.74 146.015 202.254H146.021Z" fill="#00517C"/>
<path d="M316.484 35.3941C315.591 34.3148 309.343 27.7458 310.285 26.7161C310.366 26.6293 311.823 26.5611 312.573 26.2199C327.022 19.5765 341.452 14.4653 357.37 12.4742C357.556 12.8401 357.29 13.4914 357.395 13.6837C357.804 16.8907 353.626 16.5867 351.481 17.3807C341.26 21.1955 333.623 26.1889 324.152 30.9714C321.573 32.274 318.003 32.1313 316.484 35.3941Z" fill="#FAB53B"/>
<path d="M179.494 142.705C187.633 122.949 197.743 104.588 221.353 102.398C222.426 102.299 223.721 101.865 223.51 103.316C223.25 105.134 221.161 107.975 220.405 109.836C206.942 114.426 194.34 121.541 185.705 133.109C183.424 136.161 181.93 139.777 179.494 142.711V142.705Z" fill="#FAB53B"/>
<path d="M261.316 145.186C259.717 149.411 256.283 155.173 253.983 159.249C246.681 172.188 238.71 182.485 227.527 192.323C227.056 192.422 227.131 191.727 227.23 191.405C229.864 182.981 243.978 163.312 250.158 156.346C252.88 153.281 257.801 149.429 259.456 145.801C260.021 145.583 260.771 145.602 261.316 145.18V145.186Z" fill="#F15E34"/>
<path d="M265.035 188.595C257.089 193.179 251.225 195.927 242.726 190.146L249.886 181.12L265.035 188.595Z" fill="#F15E34"/>
<path d="M218.552 155.111C222.327 159.174 225.537 164.391 230.323 167.213L224.434 176.189C222.674 173.987 219.488 171.89 217.932 169.688C215.458 166.19 218.576 159.379 218.552 155.111Z" fill="#F15E34"/>
<path d="M312.765 226.445H300.987L318.337 209.697L312.765 226.445Z" fill="#00517C"/>
<path d="M259.456 145.807C259.773 145.112 259.432 143.264 261.018 142.711C262.711 142.122 261.707 144.163 261.316 145.186C260.771 145.608 260.02 145.59 259.456 145.807C257.801 149.435 252.88 153.288 250.158 156.352L256.655 147.661C257.448 146.421 258.254 146.278 259.456 145.807Z" fill="#FAB53B"/>
<path d="M318.653 208.457C319.056 208.661 319.056 208.872 318.653 209.077V208.457Z" fill="#00517C"/>
<path d="M121.438 117.484C128.144 110.686 137.194 121.714 129.942 126.925C123.198 131.769 116.665 122.329 121.438 117.484Z" fill="#F79827"/>
<path d="M144.602 90.1104C151.662 88.4852 153.082 97.3368 147.912 98.9992C141.199 101.158 139.383 91.3076 144.602 90.1104Z" fill="#FBF5E9"/>
<path d="M107.41 154.596C110.137 153.778 113.014 156.383 111.241 159.069C108.117 163.795 103.034 155.905 107.41 154.596Z" fill="#FBF5E9"/>
<path d="M272.182 112.584C250.134 82.58 297.51 47.4961 319.837 77.0035C342.413 106.84 295.911 144.87 272.182 112.584ZM306.95 79.0505C297.807 73.2694 284.549 77.7045 279.986 87.2632C271.736 104.557 287.307 120.232 304.508 111.802C316.75 105.798 318.777 86.5251 306.957 79.0567L306.95 79.0505Z" fill="#01314E"/>
<path d="M228.903 271.845C235.406 269.891 237.395 279.387 232.362 280.901C225.63 282.923 223.709 273.408 228.903 271.845Z" fill="#0A83B3"/>
<path d="M306.95 79.0505C318.771 86.5251 316.744 105.798 304.502 111.796C287.301 120.232 271.73 104.557 279.98 87.257C284.542 77.6983 297.801 73.2632 306.944 79.0443L306.95 79.0505ZM290.276 80.7935C283.222 82.3505 285.484 94.9549 294.2 92.176C300.56 90.1538 297.708 79.156 290.276 80.7935Z" fill="#0A83B3"/>
<path d="M290.276 80.7935C297.708 79.156 300.56 90.1538 294.2 92.176C285.484 94.9487 283.216 82.3443 290.276 80.7935Z" fill="#FBF5E9"/>
<path d="M390.396 140.069C392.293 141.303 394.128 140.466 394.841 141.614C395.287 142.339 394.94 143.288 394.872 143.499C394.426 144.957 390.824 145.677 389.436 146.886C387.551 148.524 386.504 153.343 384.973 153.591C382.016 154.069 382.444 150.782 381.607 149.057C379.977 145.695 374.249 145.087 374.063 143.102C373.828 140.59 378.631 140.447 380.299 138.673C381.712 137.166 383.398 128.097 386.535 133.45C387.483 135.063 387.347 135.789 388.345 137.563C388.884 138.518 389.386 139.412 390.39 140.069H390.396Z" fill="#FAB53B"/>
</g>
</g>
<defs>
<clipPath id="clip0_2_3">
<rect width="396" height="314" fill="white"/>
</clipPath>
<clipPath id="clip1_2_3">
<rect width="396" height="314" fill="white"/>
</clipPath>
</defs>
</svg>
