<svg width="321" height="327" viewBox="0 0 321 327" fill="none" xmlns="http://www.w3.org/2000/svg">
<g clip-path="url(#clip0_4_447)">
<path d="M86.0328 19.92C89.1928 16.83 94.9929 14.36 99.1729 12.56C177.233 -20.9 270.753 14.75 303.733 92.69C304.493 94.49 305.323 92.51 306.033 96.92C303.003 96.42 300.323 99.61 301.033 102.26C301.133 102.63 304.673 104.07 303.033 107.93H306.023C306.013 105.16 307.013 102.74 307.033 99.92C312.073 107.29 314.643 118.17 316.543 126.91C333.783 206.4 294.403 280.48 224.343 312.92C210.623 319.28 186.433 324.93 171.523 325.9C115.713 329.55 60.8128 300.46 29.2128 255.23C27.6728 253.02 25.3428 247.27 25.0328 246.92C24.9028 246.77 23.6828 247.11 23.1528 246.8L24.0328 244.92C24.8028 245.67 24.8328 246.71 25.0328 246.92C27.5228 249.53 27.6529 248.97 30.0529 253.2C30.7729 254.47 32.9328 252.88 31.0328 256.91L35.0229 255.92C34.7929 257.59 33.9528 258.86 34.6628 260.63C34.8728 261.16 41.6129 269.02 42.0729 269.37C44.8629 271.5 46.1629 271.57 47.1729 268.02L52.0328 268.92C77.7428 293.6 110.993 314.39 147.543 316.91C259.583 324.62 336.363 220.98 304.033 114.92C299.763 100.91 293.883 86.07 286.033 73.92L299.023 94.92C297.863 91.19 301.973 85.63 298.053 83.93C297.823 88.2 292.753 85.55 295.793 82.91L298.033 82.43C295.453 79.14 293.883 74.65 291.643 71.28C291.213 70.63 289.613 69.76 289.043 68.92V72.91H287.053V68.92H289.043C277.633 52.22 265.043 39.34 247.833 28.85C246.843 28.25 246.133 26.37 244.523 25.91C243.653 27.97 243.533 28.26 241.043 27.91L242.033 23.96C221.623 13.34 198.873 3.54 175.523 1.93C142.163 -0.37 115.863 5.86999 86.0328 19.92Z" fill="#24174B"/>
<path d="M86.0329 19.92C115.863 5.86999 142.163 -0.37 175.523 1.93C198.863 3.54 221.623 13.34 242.033 23.96L241.043 27.91C243.533 28.26 243.653 27.97 244.523 25.91C246.133 26.37 246.843 28.25 247.833 28.85C265.033 39.34 277.633 52.22 289.043 68.92H287.053V72.91H289.043V68.92C289.623 69.76 291.223 70.63 291.643 71.28C293.883 74.66 295.443 79.14 298.033 82.43L295.793 82.91C292.753 85.55 297.833 88.2 298.053 83.93C301.973 85.63 297.873 91.19 299.023 94.92L286.033 73.92C285.833 73.61 285.303 73.33 285.033 72.92C283.393 70.17 281.333 65.45 278.033 64.92C277.343 63.99 277.173 63.1 277.033 62.92C275.753 61.25 273.893 57.75 272.663 56.27C270.543 53.72 266.703 51 264.033 48.92C263.453 48.29 262.763 47.75 262.033 46.92C261.893 46.77 262.373 45.7 261.863 45.12C261.173 44.34 258.123 43.9 257.033 42.92C256.703 42.59 256.373 42.24 256.033 41.92C253.983 39.98 252.303 37.45 249.523 35.94L249.033 36.92C248.113 36.22 247.333 35.12 247.033 34.92C246.003 34.23 245.093 33.59 244.033 32.92C242.783 32.14 241.303 31.67 240.033 30.92C239.503 30.61 238.753 30.33 238.033 29.92C240.893 27.29 237.613 28.27 236.643 27.83C234.183 26.71 218.923 18.82 218.033 17.92C217.863 17.75 218.243 16.5 218.003 15.93C217.033 15.47 216.183 16.92 216.033 16.92C213.403 16.94 205.703 14.05 204.033 11.92C202.773 10.31 206.073 10.29 200.033 9.91999L199.523 7.91001H198.043V9.91999C197.373 9.89999 196.713 9.93999 196.043 9.91999C192.773 9.81999 189.243 10.1 186.043 9.91999C181.993 9.68999 178.313 9.06999 174.043 8.91999C173.003 7.24999 171.333 7.04 169.563 6.9C152.873 5.57 134.653 9.09001 118.483 12.88L119.043 13.92C59.4029 31.01 19.3129 81.9 9.04286 141.92C7.71286 149.71 4.39286 175.66 9.04286 181.92C9.32286 182.3 9.68286 182.62 10.0429 182.92C10.2329 192.47 16.2829 211.73 20.0429 220.92C24.4129 231.6 30.8329 242.2 37.0429 251.92C39.0529 255.07 39.2929 255.06 41.0429 256.92C41.6329 257.55 42.4129 258.31 43.0429 258.92C43.4929 261.93 46.7429 263.75 49.0429 265.92C50.0829 266.9 51.0329 267.95 52.0429 268.92L47.1829 268.02C46.1729 271.58 44.8729 271.5 42.0829 269.37C41.6229 269.02 34.8829 261.17 34.6729 260.63C33.9629 258.86 34.8029 257.59 35.0329 255.92L31.0429 256.91C32.9429 252.88 30.7829 254.47 30.0629 253.2C27.6629 248.96 27.5229 249.53 25.0429 246.92C24.8429 246.71 24.8129 245.67 24.0429 244.92C21.0929 242.06 20.2529 240.15 18.0429 235.92C15.4829 226.7 11.2729 218.11 8.54286 208.92C-3.94714 166.83 1.34286 127.35 19.0429 87.92C24.9929 74.66 31.7729 65.21 42.0429 53.92L54.5429 42.91C54.9029 42.45 54.0029 41.96 54.0429 41.92C63.7029 32.03 74.0429 25.57 86.0429 19.92H86.0329ZM246.533 30.92V31.92C247.183 31.59 247.183 31.25 246.533 30.92ZM297.533 88.92V89.92C298.183 89.59 298.183 89.25 297.533 88.92ZM27.0329 240.91C28.0529 239.91 25.0829 236.9 24.0429 237.92C23.0029 238.94 25.9929 241.93 27.0329 240.91ZM42.0329 259.92H40.0429V261.91H42.0329V259.92Z" fill="#2D184F"/>
<path d="M18.0328 235.92C1.55284 204.32 -3.50713 169.98 2.34287 134.73C4.98287 118.85 10.5528 101.48 19.0328 87.92C1.34284 127.35 -3.94713 166.82 8.53287 208.92C11.2629 218.11 15.4728 226.7 18.0328 235.92Z" fill="#24174B"/>
<path d="M306.033 96.92C306.083 97.25 305.973 97.6 306.033 97.92C306.133 98.39 306.563 98.78 307.033 98.92C307.103 99.2 307.033 99.6 307.033 99.92C307.013 102.74 306.013 105.15 306.023 107.92H303.033C304.673 104.07 301.133 102.62 301.033 102.26C300.313 99.61 303.003 96.42 306.033 96.92ZM305.033 99.92H303.043V101.91H305.033V99.92Z" fill="#2D184F"/>
<path d="M54.0328 41.92C54.0328 41.92 54.8928 42.45 54.5328 42.91L42.0328 53.92C45.8528 49.72 49.5028 45.41 54.0328 41.92Z" fill="#24174B"/>
<path d="M307.033 98.92C306.563 98.78 306.133 98.39 306.033 97.92C306.483 98.08 306.923 98.45 307.033 98.92Z" fill="#24174B"/>
<path d="M244.033 32.92C244.463 34.35 245.573 34.91 247.033 34.92C247.333 35.12 248.113 36.22 249.033 36.92C251.303 38.63 253.853 40.07 256.033 41.92C256.373 42.24 256.703 42.59 257.033 42.92C258.463 44.37 260.063 46.81 262.033 46.92C262.763 47.75 263.453 48.29 264.033 48.92C268.333 53.63 272.343 58.6 277.033 62.92C277.173 63.1 277.343 63.99 278.033 64.92C279.793 67.29 283.723 70.91 285.033 72.92C285.303 73.33 285.833 73.61 286.033 73.92C293.883 86.07 299.763 100.91 304.033 114.92C301.623 127.21 301.163 139.94 298.893 152.28C298.363 155.15 296.113 169.35 293.473 169.91C279.553 160.3 269.803 176.74 277.183 189.27C278.323 191.2 280.713 192.15 281.053 194.41C281.043 195.09 279.093 195.06 278.213 196.56C275.823 200.61 273.743 209.61 271.063 214.25C270.413 215.37 268.823 214.64 268.313 215.12C267.213 216.15 267.223 222.23 262.533 222.95L257.053 216.4C250.073 209.58 239.983 213.3 233.123 218.5C226.263 223.7 218.333 237.24 218.103 245.57C217.903 252.63 222.193 254.06 213.353 258.73C193.823 269.05 172.183 272.44 150.633 275.01C146.813 275.47 142.413 277.57 138.533 277.7C130.113 277.98 122.633 272.02 114.723 273.92C113.963 274.1 114.103 275.72 113.353 275.89C109.153 276.87 77.5829 272.04 72.0029 270.43C64.6329 268.31 57.0229 263.03 49.7429 260.69C47.9029 260.1 46.6928 258.6 47.0428 261.89C46.4928 261.36 44.6128 260.42 43.0428 258.89C42.4128 258.28 41.6328 257.52 41.0428 256.89C40.9028 254.5 38.9628 252.98 37.0428 251.89C30.8328 242.17 24.4128 231.57 20.0428 220.89C24.7528 219.01 30.9928 224.92 35.5328 226.9C41.2028 229.38 48.0228 231.5 54.0428 232.89C54.4328 221.06 72.1828 222.26 74.0428 235.89C67.3428 234.93 60.6428 234.41 54.0428 232.89C53.8928 237.48 57.8129 245.54 62.7529 246.68C71.4729 248.68 74.5228 245.05 74.0428 236.89C87.2328 238.62 100.693 239.38 114.043 238.89C114.703 238.87 115.383 238.92 116.043 238.89C121.533 255.85 146.563 255.92 159.733 248.08C168.893 242.63 172.443 235.1 174.043 224.89C174.093 224.58 174.973 223.82 175.043 222.89C188.703 218.01 201.343 210 212.513 200.86C222.703 192.52 235.433 181.31 240.043 168.89C241.023 168.83 242.123 169.03 243.043 168.89C255.123 167.04 268.673 152.46 270.043 140.39C271.313 129.21 269.423 123.48 265.043 113.89C264.343 112.37 263.793 109.08 263.043 107.89C264.703 97.87 262.423 84.56 259.763 74.67C256.223 61.54 250.703 53.2 244.043 41.89C242.433 39.16 240.163 36.04 238.853 33.56C237.543 31.08 238.343 32.43 240.043 30.89C241.313 31.64 242.793 32.11 244.043 32.89L244.033 32.92Z" fill="#068180"/>
<path d="M304.033 114.92C336.363 220.98 259.583 324.62 147.543 316.91C110.993 314.39 77.7429 293.6 52.0329 268.92C51.0229 267.95 50.0729 266.9 49.0329 265.92C48.8229 264.57 47.9829 262.83 47.0329 261.92C46.6929 258.62 47.8929 260.12 49.7329 260.72C57.0129 263.07 64.6229 268.34 71.9929 270.46C77.5729 272.07 109.143 276.9 113.343 275.92C114.093 275.74 113.953 274.13 114.713 273.95C122.623 272.05 130.113 278 138.523 277.73C142.413 277.6 146.803 275.49 150.623 275.04C172.173 272.47 193.813 269.08 213.343 258.76C222.183 254.09 217.893 252.66 218.093 245.6C218.323 237.27 226.533 223.52 233.113 218.53C239.693 213.54 250.053 209.61 257.043 216.43L262.523 222.98C267.203 222.26 267.193 216.18 268.303 215.15C268.813 214.67 270.413 215.4 271.053 214.28C273.733 209.64 275.813 200.64 278.203 196.59C279.083 195.09 281.033 195.12 281.043 194.44C280.703 192.18 278.313 191.23 277.173 189.3C269.803 176.78 279.543 160.33 293.463 169.94C296.113 169.38 298.363 155.18 298.883 152.31C301.143 139.96 301.603 127.24 304.023 114.95L304.033 114.92Z" fill="#036F72"/>
<path d="M174.033 8.92C178.303 9.07 181.983 9.69 186.033 9.92C196.973 13.8 209.493 15.77 220.233 20.22C226.033 22.62 232.513 26.75 238.033 29.92C238.753 30.33 239.503 30.61 240.033 30.92C238.333 32.45 237.533 31.12 238.843 33.59C240.153 36.06 242.433 39.19 244.033 41.92L241.383 44.96L233.033 43.92L236.023 52.91C233.493 53.67 233.643 50.54 232.843 50.12C231.473 49.4 229.583 50.46 228.243 49.69C221.993 46.08 223.413 46.97 215.763 45.69C212.983 45.23 210.153 41.21 210.033 47.91L216.023 49.41L213.523 52.91L213.023 49.91L207.023 51.92C207.103 51.6 206.943 51.24 207.023 50.92C207.343 49.58 209.623 48.76 209.013 46.93H205.023C195.423 32.42 160.923 36.99 163.983 58.47C165.633 70.07 181.823 72.45 191.283 70.68C196.363 69.73 199.413 65.53 203.023 63.92C203.163 63.86 202.853 65.84 205.343 63.92C206.273 63.2 205.693 61.95 206.523 61.92L209.013 63.93C208.463 63.08 210.053 55.56 212.013 57.93C212.743 58.81 210.403 61.37 210.213 62.63C209.903 64.7 211.413 69.28 211.023 71.25C210.863 72.05 207.913 71.81 209.023 74.42C210.583 78.08 219.053 74.01 220.013 74.93L218.083 80.31L223.023 82.94C223.103 88.42 217.243 87.89 213.023 87.92L214.043 84.5C210.743 83 211.043 81.08 212.013 77.94C208.593 77.34 207.703 79.3 207.913 82.48C208.023 84.26 211.093 83.48 210.033 88.45C209.673 90.15 204.843 94.66 205.003 92.42L206.013 87.94L198.023 91.95C195.893 93.99 204.063 95.77 205.023 95.95C205.713 96.83 200.593 102.53 198.543 101.96C197.933 101.79 198.993 99.5 194.563 99.89C189.343 100.36 188.883 105.19 184.023 102.94L184.003 111.94L179.013 108.94V111.94L173.533 109.89C171.913 113.2 167.803 111.65 169.013 116.93L173.003 114.94L175.053 123.51L172.973 125.45L175.043 129.44L172.933 130.52L175.003 136.94C170.923 137.5 169.043 127.48 165.523 128.95C162.483 130.09 165.443 138.64 165.013 138.93C159.853 137.91 153.373 138.19 155.003 144.94L149.663 143.97L148.923 141.09L144.013 139.94C152.373 139.43 162.603 134.45 163.923 125.36C166.783 105.65 147.643 100.58 134.513 112.95C124.143 122.73 126.903 139.37 142.013 139.95C141.793 142.06 142.413 143.15 144.033 144.44C145.653 145.73 148.643 145.06 148.003 147.94C145.323 148.91 146.403 146.13 145.373 145.92C143.603 145.57 141.393 146.35 139.703 145.97C138.443 145.68 138.193 141.14 134.713 142.06C129.623 143.4 132.403 148.27 131.803 149.72C131.723 149.92 128.543 151.7 128.313 152.21C127.503 153.95 129.093 156.29 126.513 155.95C123.763 155.59 122.903 152.22 123.013 149.94L127.023 147.94L120.493 147.91C120.973 153.47 115.653 151.7 114.123 156.56C113.873 157.34 120.423 162.85 112.023 161.94V157.92H108.023L109.013 165.92L101.533 164.88L100.943 167.8C91.9728 168.87 87.4228 174.56 85.9728 162.42C85.7528 160.54 87.2228 158.37 84.0128 158.93C84.0528 158.27 83.9929 157.59 84.0128 156.93C84.0128 156.82 84.8428 156.35 84.8728 155.48C84.9428 153.28 83.3628 150.83 85.0028 147.94L81.0028 148.93C78.0828 144.89 71.5228 143.39 66.7428 144.17C61.9628 144.95 53.6728 150.88 51.0028 154.93L47.5528 156.89C47.1028 163.66 44.3828 169.77 46.9928 176.93C44.1828 175.6 38.9628 175.77 39.9928 179.92H37.0328L35.9928 173.92H29.0229C29.1529 177.68 27.5428 178.36 24.0028 177.93C23.4728 173.93 23.8028 171.08 27.9728 169.91C27.2728 163.93 23.3728 172.95 19.9928 170.93L20.8828 178.48L26.0028 179.93C26.9128 183.36 24.2728 182.91 23.2628 184.24C22.7128 184.97 23.1728 186.65 22.9628 186.86C22.4628 187.35 14.0928 186.02 13.0128 184.42L18.4028 182.85L21.0028 184.92V180.93H17.0028C18.0428 176.35 15.0028 175.11 11.2528 177.17C10.6728 178.92 9.97282 181.08 10.0128 182.92C9.65282 182.62 9.29282 182.3 9.01282 181.92C10.0428 179.52 8.01282 175.77 8.01282 174.42V152.42C8.01282 150.21 10.0628 145.19 9.01282 141.92C19.2828 81.9 59.3728 31.01 119.013 13.92C137.913 8.51 154.693 8.26 174.013 8.92H174.033ZM114.183 32.77C115.583 34.99 122.923 34.53 122.063 28.48C121.003 21.05 110.573 27.02 114.183 32.77ZM120.373 60.71C120.183 59.97 120.873 59.09 120.463 58.05C118.043 51.96 114.323 46.46 107.303 45.15C87.2828 41.41 58.7428 63.02 57.0628 83.43C53.9828 120.9 100.903 107.03 114.243 85.61C117.283 80.72 122.453 66.85 122.063 61.48C122.023 60.91 120.423 60.9 120.383 60.71H120.373ZM209.033 67.92H207.043V69.91H209.033V67.92ZM31.2528 130.71C31.4428 131.04 36.9728 134.6 37.6628 134.68C46.7928 135.69 53.6428 119.87 41.8128 116.55C34.9228 114.62 27.9428 124.98 31.2528 130.71ZM172.033 127.92H170.043V129.91H172.033V127.92ZM17.0328 165.92C14.4328 166.81 12.6428 166.84 10.0428 165.92V173.91H17.0328V165.92Z" fill="#1CAD9C"/>
<path d="M263.033 107.92C252.193 90.67 233.953 89.91 217.013 97.45C215.583 98.09 213.743 97.63 213.033 97.92L208.033 95.93L210.033 100.92C184.693 128.14 203.373 171.23 240.033 168.92C235.433 181.34 222.703 192.55 212.503 200.89C201.333 210.03 188.693 218.03 175.033 222.92C177.393 189.2 134.133 175 114.623 201.01C105.603 213.03 106.923 226.41 114.033 238.92C100.683 239.41 87.2229 238.65 74.0329 236.92C74.0129 236.59 74.0729 236.24 74.0329 235.92C72.1729 222.29 54.4229 221.09 54.0329 232.92C48.0029 231.54 41.1929 229.41 35.5229 226.93C30.9829 224.95 24.7529 219.04 20.0329 220.92C16.2729 211.73 10.2229 192.47 10.0329 182.92C9.99289 181.08 10.6929 178.92 11.2729 177.17C15.0229 175.11 18.0629 176.34 17.0229 180.93H21.0429L21.0329 184.92L18.4329 182.85L13.0429 184.42C14.1329 186.02 22.4929 187.35 22.9929 186.86C23.2029 186.65 22.7429 184.97 23.2929 184.24C24.3129 182.9 26.9429 183.36 26.0329 179.93L20.9129 178.48L20.0229 170.93C23.4129 172.95 27.3129 163.93 28.0029 169.91C23.8329 171.08 23.5029 173.94 24.0329 177.93C27.5829 178.36 29.1829 177.67 29.0529 173.92H36.0229L37.0629 179.91H40.0229C38.9929 175.77 44.2129 175.59 47.0229 176.92C44.4129 169.77 47.1329 163.65 47.5829 156.88L51.0329 154.92C47.3229 160.55 46.3129 169.72 48.3229 176.13C52.8029 190.48 69.8029 190.12 78.5429 179.92C85.0729 172.3 83.5129 167.86 84.0329 158.91C87.2429 158.35 85.7629 160.53 85.9929 162.4C87.4429 174.53 91.9929 168.85 100.963 167.78L101.553 164.86L109.033 165.9L108.043 157.9H112.033V161.91C120.433 162.82 113.883 157.31 114.133 156.53C115.663 151.67 120.983 153.44 120.503 147.88L127.033 147.91L123.023 149.91C122.913 152.19 123.783 155.55 126.523 155.92C129.103 156.26 127.513 153.93 128.323 152.18C128.563 151.67 131.733 149.88 131.813 149.69C132.413 148.23 129.633 143.37 134.723 142.03C138.203 141.11 138.453 145.65 139.713 145.94C141.393 146.33 143.613 145.54 145.383 145.89C146.413 146.09 145.333 148.88 148.013 147.91C148.653 145.03 145.713 145.75 144.043 144.41C142.373 143.07 141.803 142.03 142.023 139.92C142.683 139.94 143.373 139.96 144.023 139.92L148.933 141.07L149.673 143.95L155.013 144.92C153.383 138.18 159.853 137.89 165.023 138.91C165.453 138.62 162.493 130.07 165.533 128.93C169.053 127.45 170.933 137.48 175.013 136.92L172.943 130.5L175.053 129.42L172.983 125.43L175.063 123.49L173.013 114.92L169.023 116.91C167.813 111.62 171.913 113.18 173.543 109.87L179.013 111.92V108.92L184.003 111.92L184.023 102.92C188.873 105.17 189.343 100.34 194.563 99.87C198.993 99.47 197.933 101.76 198.543 101.94C200.583 102.52 205.703 96.82 205.023 95.93C204.063 95.75 195.893 93.97 198.023 91.93L206.013 87.92L205.003 92.4C204.843 94.63 209.673 90.13 210.033 88.43C211.093 83.47 208.023 84.24 207.913 82.46C207.713 79.28 208.593 77.32 212.013 77.92C211.043 81.06 210.743 82.99 214.043 84.48L213.023 87.9C217.243 87.87 223.103 88.39 223.023 82.92L218.083 80.29L220.013 74.91C219.053 73.99 210.583 78.06 209.023 74.4C207.913 71.79 210.863 72.03 211.023 71.23C211.413 69.26 209.903 64.68 210.213 62.61C210.403 61.35 212.743 58.8 212.013 57.91C210.053 55.54 208.463 63.06 209.013 63.91L206.523 61.9C205.693 61.93 206.273 63.18 205.343 63.9C202.853 65.83 203.163 63.84 203.023 63.9C206.573 59.9 206.013 56.12 207.023 51.9L213.023 49.89L213.523 52.89L216.023 49.39L210.033 47.89C210.143 41.2 212.983 45.21 215.763 45.67C223.423 46.95 222.003 46.06 228.243 49.67C229.593 50.45 231.473 49.39 232.843 50.1C233.643 50.52 233.503 53.65 236.023 52.89L233.033 43.9L241.383 44.94L244.033 41.9C250.693 53.22 256.203 61.56 259.753 74.68C262.423 84.56 264.703 97.87 263.033 107.9V107.92ZM219.033 48.92H217.043V50.91H219.033V48.92ZM226.033 52.91L222.043 49.92L221.043 53.91L226.033 52.91ZM217.033 53.92H213.043V55.91H217.033V53.92ZM230.033 54.92C223.983 54.56 225.233 60.9 230.033 56.4V54.92ZM239.763 63.2C231.773 56.64 222.173 65.93 227.333 74.63C231.893 79.41 243.553 76.64 242.853 69.66C242.733 68.47 240.613 63.89 239.763 63.2ZM216.033 71.92H214.043V73.91H216.033V71.92ZM220.533 88.92V89.92C221.183 89.59 221.183 89.25 220.533 88.92ZM213.023 96.91V94.92H212.043V96.91H213.023ZM195.013 104.94L193.023 105.42V108.91H197.023L195.013 104.94ZM191.033 106.91H188.043C187.883 108.9 187.793 110.7 189.553 111.91H191.033V106.91ZM169.033 135.92H167.043V137.91H169.033V135.92ZM178.033 135.92H176.043V137.91H178.033V135.92ZM160.033 140.92C158.173 140.66 156.573 140.92 156.043 142.9L160.033 143.91V140.92ZM164.033 143.92H161.043V145.91H164.033V143.92ZM146.033 149.92C142.433 146.71 141.863 156.45 145.543 151.92C146.063 151.28 146.293 150.15 146.033 149.92ZM133.033 152.92H131.043V155.91H133.033V152.92ZM142.033 152.92H140.043V154.91H142.033V152.92ZM148.033 153.92C147.323 153.18 142.063 155.86 143.043 157.91C145.363 158.3 146.703 157.12 148.033 155.4V153.92ZM179.793 159.16C176.293 155.68 169.133 158.63 169.003 164.42C168.743 176.34 186.673 166.01 179.793 159.16ZM123.033 158.92H121.553L120.043 160.9H123.033V158.92Z" fill="#18A59A"/>
<path d="M196.033 9.91999C197.853 12.5 201.293 11.95 204.033 11.92C205.703 14.05 213.403 16.94 216.033 16.92L218.033 17.92C218.923 18.82 234.183 26.71 236.643 27.83C237.613 28.27 240.893 27.29 238.033 29.92C232.513 26.75 226.033 22.62 220.233 20.22C209.493 15.77 196.973 13.79 186.033 9.91999C189.233 10.1 192.763 9.81999 196.033 9.91999Z" fill="#24174B"/>
<path d="M174.033 8.91997C154.713 8.25997 137.933 8.50997 119.033 13.92L118.473 12.88C134.643 9.08999 152.863 5.56998 169.553 6.89998C171.323 7.03998 172.993 7.24997 174.033 8.91997Z" fill="#24174B"/>
<path d="M9.03291 181.92C4.38291 175.66 7.70291 149.71 9.03291 141.92C10.0829 145.19 8.03291 150.21 8.03291 152.42V174.42C8.03291 175.77 10.0629 179.52 9.03291 181.92Z" fill="#24174B"/>
<path d="M198.033 9.91997C198.693 9.93997 199.373 9.87997 200.033 9.91997C206.073 10.29 202.773 10.31 204.033 11.92C201.293 11.95 197.853 12.5 196.033 9.91997C196.703 9.93997 197.363 9.89997 198.033 9.91997Z" fill="#311957"/>
<path d="M27.0329 240.91C25.9929 241.93 23.0229 238.92 24.0429 237.92C25.0629 236.92 28.0529 239.91 27.0329 240.91Z" fill="#24174B"/>
<path d="M41.0328 256.92C39.2828 255.06 39.0428 255.07 37.0328 251.92C38.9528 253.01 40.8928 254.53 41.0328 256.92Z" fill="#24174B"/>
<path d="M216.033 16.92C216.183 16.92 217.033 15.47 218.003 15.93C218.243 16.5 217.863 17.75 218.033 17.92L216.033 16.92Z" fill="#311957"/>
<path d="M257.033 42.92C258.123 43.9 261.163 44.34 261.863 45.12C262.373 45.69 261.903 46.76 262.033 46.92C260.063 46.81 258.463 44.37 257.033 42.92Z" fill="#24174B"/>
<path d="M264.033 48.92C266.693 51 270.533 53.72 272.663 56.27C273.893 57.75 275.753 61.25 277.033 62.92C272.343 58.6 268.333 53.63 264.033 48.92Z" fill="#24174B"/>
<path d="M198.033 9.91998V7.92999L199.523 7.91998L200.033 9.92999C199.373 9.88999 198.693 9.94999 198.033 9.92999V9.91998Z" fill="#24174B"/>
<path d="M47.0328 261.92C47.9828 262.83 48.8228 264.57 49.0328 265.92C46.7328 263.75 43.4828 261.93 43.0328 258.92C44.6028 260.45 46.4828 261.39 47.0328 261.92Z" fill="#24174B"/>
<path d="M42.0328 259.92H40.0428V261.91H42.0328V259.92Z" fill="#24174B"/>
<path d="M285.033 72.92C283.723 70.91 279.793 67.29 278.033 64.92C281.333 65.45 283.393 70.17 285.033 72.92Z" fill="#24174B"/>
<path d="M247.033 34.92C245.573 34.91 244.463 34.35 244.033 32.92C245.093 33.59 246.003 34.23 247.033 34.92Z" fill="#24174B"/>
<path d="M256.033 41.92C253.853 40.07 251.303 38.63 249.033 36.92L249.523 35.94C252.293 37.45 253.983 39.98 256.033 41.92Z" fill="#24174B"/>
<path d="M246.533 30.92C247.183 31.25 247.183 31.59 246.533 31.92V30.92Z" fill="#24174B"/>
<path d="M297.533 88.92C298.183 89.25 298.183 89.59 297.533 89.92V88.92Z" fill="#24174B"/>
<path d="M305.033 99.92H303.043V101.91H305.033V99.92Z" fill="#24174B"/>
<path d="M263.033 107.92C263.783 109.11 264.333 112.4 265.033 113.92C262.853 114.54 263.223 116.55 262.833 118.23C260.693 127.56 259.193 134.92 255.493 143.89C251.793 152.86 246.373 160.11 243.023 168.92C242.103 169.06 241.003 168.86 240.023 168.92C203.363 171.23 184.683 128.14 210.023 100.92C210.803 100.09 212.023 98.32 213.023 97.92C213.733 97.63 215.583 98.08 217.003 97.45C233.943 89.91 252.183 90.67 263.023 107.92H263.033Z" fill="#7DC372"/>
<path d="M175.033 222.92C174.963 223.85 174.083 224.61 174.033 224.92C155.503 232.56 136.183 237.88 116.033 238.92C115.373 238.95 114.693 238.9 114.033 238.92C106.913 226.41 105.603 213.03 114.623 201.01C134.133 175.01 177.403 189.2 175.033 222.92Z" fill="#7DC372"/>
<path d="M174.033 224.92C172.433 235.13 168.883 242.66 159.723 248.11C146.543 255.95 121.523 255.88 116.033 238.92C136.183 237.88 155.503 232.56 174.033 224.92Z" fill="#4BA46E"/>
<path d="M243.033 168.92C246.383 160.11 251.893 152.66 255.503 143.89C259.113 135.12 260.703 127.56 262.843 118.23C263.223 116.55 262.863 114.54 265.043 113.92C269.423 123.52 271.313 129.24 270.043 140.42C268.673 152.49 255.123 167.07 243.043 168.92H243.033Z" fill="#4BA46E"/>
<path d="M74.0329 235.92C74.0729 236.24 74.0129 236.59 74.0329 236.92C74.5029 245.08 71.4629 248.71 62.7429 246.71C57.8029 245.58 53.8829 237.51 54.0329 232.92C60.6329 234.44 67.3329 234.96 74.0329 235.92Z" fill="#036F72"/>
<path d="M120.373 60.71C120.423 60.9 122.013 60.9 122.053 61.48C122.443 66.86 117.273 80.73 114.233 85.61C100.903 107.03 53.9728 120.89 57.0528 83.43C58.7328 63.02 87.2728 41.41 107.293 45.15C114.313 46.46 118.033 51.95 120.453 58.05C120.863 59.09 120.183 59.97 120.363 60.71H120.373Z" fill="#BBD157"/>
<path d="M81.0327 148.92C81.8827 150.1 83.2627 155.15 84.0327 156.92C84.0127 157.58 84.0728 158.26 84.0327 158.92C83.5127 167.86 85.0728 172.31 78.5428 179.93C69.8028 190.13 52.8028 190.48 48.3228 176.14C46.3228 169.73 47.3227 160.56 51.0327 154.93C53.7027 150.88 61.9028 144.97 66.7728 144.17C71.6428 143.37 78.1127 144.88 81.0327 148.93V148.92Z" fill="#7DC372"/>
<path d="M203.033 63.92C199.423 65.53 196.373 69.73 191.293 70.68C181.833 72.45 165.643 70.07 163.993 58.47C160.933 36.98 195.433 32.42 205.033 46.92C205.573 47.74 205.223 50.21 207.033 50.92C206.953 51.24 207.113 51.6 207.033 51.92C206.023 56.14 206.583 59.92 203.033 63.92Z" fill="#BBD157"/>
<path d="M144.033 139.92C143.383 139.96 142.693 139.94 142.033 139.92C126.923 139.34 124.163 122.7 134.533 112.92C147.653 100.55 166.803 105.62 163.943 125.33C162.623 134.43 152.393 139.41 144.033 139.91V139.92Z" fill="#068180"/>
<path d="M31.2528 130.71C27.9428 124.98 34.9228 114.62 41.8128 116.55C53.6428 119.87 46.7928 135.69 37.6628 134.68C36.9628 134.6 31.4428 131.04 31.2528 130.71Z" fill="#7DC372"/>
<path d="M114.183 32.77C110.573 27.03 121.003 21.05 122.063 28.48C122.923 34.53 115.583 34.99 114.183 32.77Z" fill="#BBD157"/>
<path d="M17.0328 165.92V173.91H10.0428V165.92C12.6428 166.84 14.4328 166.81 17.0328 165.92Z" fill="#18A59A"/>
<path d="M81.0328 148.92L85.0328 147.93C83.3928 150.82 84.9728 153.28 84.9028 155.47C84.8728 156.35 84.0428 156.82 84.0428 156.92C83.2728 155.15 81.8928 150.1 81.0428 148.92H81.0328Z" fill="#18A59A"/>
<path d="M205.033 46.92H209.023C209.633 48.76 207.353 49.58 207.033 50.92C205.223 50.21 205.573 47.74 205.033 46.92Z" fill="#18A59A"/>
<path d="M209.033 67.92H207.043V69.91H209.033V67.92Z" fill="#18A59A"/>
<path d="M172.033 127.92H170.043V129.91H172.033V127.92Z" fill="#18A59A"/>
<path d="M239.763 63.2C240.613 63.9 242.733 68.47 242.853 69.66C243.553 76.64 231.903 79.41 227.333 74.63C222.173 65.93 231.773 56.64 239.763 63.2Z" fill="#1CAD9C"/>
<path d="M179.793 159.16C186.673 166.01 168.753 176.34 169.003 164.42C169.123 158.63 176.293 155.68 179.793 159.16Z" fill="#7DC372"/>
<path d="M191.033 106.91V111.91H189.553C187.793 110.7 187.883 108.91 188.043 106.92H191.033V106.91Z" fill="#1CAD9C"/>
<path d="M226.033 52.91L221.043 53.91L222.043 49.92L226.033 52.91Z" fill="#1CAD9C"/>
<path d="M148.033 153.92V155.4C146.703 157.12 145.363 158.3 143.043 157.91C142.063 155.86 147.323 153.18 148.033 153.92Z" fill="#1CAD9C"/>
<path d="M213.033 97.92C212.033 98.32 210.813 100.09 210.033 100.92L208.033 95.93L213.033 97.92Z" fill="#1CAD9C"/>
<path d="M195.013 104.94L197.033 108.91H193.043L193.033 105.42L195.013 104.94Z" fill="#1CAD9C"/>
<path d="M230.033 54.92V56.4C225.233 60.9 223.983 54.56 230.033 54.92Z" fill="#1CAD9C"/>
<path d="M160.033 140.92V143.91L156.043 142.9C156.573 140.91 158.173 140.66 160.033 140.92Z" fill="#1CAD9C"/>
<path d="M146.033 149.92C146.293 150.15 146.063 151.28 145.543 151.92C141.863 156.45 142.433 146.71 146.033 149.92Z" fill="#1CAD9C"/>
<path d="M217.033 53.92H213.043V55.91H217.033V53.92Z" fill="#1CAD9C"/>
<path d="M133.033 152.92H131.043V155.91H133.033V152.92Z" fill="#1CAD9C"/>
<path d="M164.033 143.92H161.043V145.91H164.033V143.92Z" fill="#1CAD9C"/>
<path d="M123.033 158.92V160.91H120.033L121.553 158.93L123.033 158.92Z" fill="#1CAD9C"/>
<path d="M178.033 135.92H176.043V137.91H178.033V135.92Z" fill="#1CAD9C"/>
<path d="M219.033 48.92H217.043V50.91H219.033V48.92Z" fill="#1CAD9C"/>
<path d="M169.033 135.92H167.043V137.91H169.033V135.92Z" fill="#1CAD9C"/>
<path d="M142.033 152.92H140.043V154.91H142.033V152.92Z" fill="#1CAD9C"/>
<path d="M216.033 71.92H214.043V73.91H216.033V71.92Z" fill="#1CAD9C"/>
<path d="M213.023 94.92H212.043V96.91H213.023V94.92Z" fill="#1CAD9C"/>
<path d="M220.533 88.92C221.183 89.25 221.183 89.59 220.533 89.92V88.92Z" fill="#1CAD9C"/>
</g>
<defs>
<clipPath id="clip0_4_447">
<rect width="321" height="327" fill="white"/>
</clipPath>
</defs>
</svg>
