<svg width="306" height="313" viewBox="0 0 306 313" fill="none" xmlns="http://www.w3.org/2000/svg">
<g clip-path="url(#clip0_4_449)">
<path d="M298.063 202.663C286.033 238.233 259.783 275.783 221.133 295.143C90.8327 360.413 -43.2172 226.643 13.2828 94.2925C25.0728 66.6925 50.0027 36.2426 76.1127 21.1226C121.933 -5.40745 179.213 -7.92747 227.753 19.1625C290.853 54.3925 321.563 133.183 298.053 202.653L298.063 202.663ZM18.4627 105.973C18.0427 107.123 16.9827 108.413 16.4627 109.973C14.0827 117.183 11.9727 125.443 11.4627 132.973C11.4427 133.313 11.5227 133.673 11.4627 133.973C10.9727 134.073 10.5327 134.493 10.4627 134.973C10.2427 136.433 10.4827 138.383 10.4627 139.973C8.80271 141.003 9.4627 143.773 9.44269 145.463C9.28269 160.683 8.23271 176.483 13.4627 190.973C13.8327 199.633 18.9527 211.033 22.4627 218.973C25.7127 226.313 28.3027 230.473 32.4627 236.973C36.9527 243.993 41.2227 251.293 47.4627 256.973C53.9527 265.503 64.6627 273.123 73.4627 278.973C81.6527 284.423 86.3627 286.923 95.4627 290.973C123.223 303.323 147.433 306.383 177.463 300.973C198.243 297.233 211.233 291.483 228.463 279.973C239.233 272.773 247.483 266.653 256.463 256.973C268.953 243.503 277.293 229.823 284.463 212.973C292.153 194.883 297.263 176.883 297.463 156.973C297.593 144.303 295.563 129.253 292.463 116.973C288.783 102.423 283.763 92.5825 276.463 79.9725C271.893 72.0725 269.643 68.1025 263.463 60.9725C259.193 56.0525 254.263 50.4425 249.463 45.9725C234.723 32.2325 217.493 22.4925 198.463 15.9725C121.763 -10.3175 45.6527 32.3725 18.4627 105.973Z" fill="#31284C"/>
<path d="M268.463 82.9725C268.523 83.2025 269.873 84.1426 270.213 85.6826C273.223 99.2626 274.783 112.973 274.473 126.973C276.113 128.723 291.973 121.053 292.463 116.973C295.563 129.253 297.593 144.303 297.463 156.973C292.403 157.003 287.183 156.923 282.173 157.343C279.413 157.573 277.603 157.993 273.963 158.163C271.923 158.253 268.283 159.743 266.463 158.963C266.303 158.893 268.903 156.203 265.473 156.973C269.283 147.683 272.343 138.033 273.473 127.983L244.453 130.463C196.103 140.963 208.463 186.633 181.133 213.633C156.423 238.043 122.753 231.503 94.4828 248.483C146.083 256.603 198.253 236.013 235.483 200.983C235.603 201.123 237.823 201.333 238.823 202.093C248.833 209.723 265.993 217.343 278.753 213.913C279.583 213.693 279.543 212.273 279.663 212.223C280.293 211.953 283.093 213.563 284.473 212.973C277.303 229.823 268.963 243.503 256.473 256.973C252.353 231.103 222.023 229.273 201.493 236.493C197.923 237.753 189.093 241.203 186.133 242.943C184.983 243.623 185.793 245.303 185.323 245.763C184.883 246.193 182.543 245.953 180.953 246.933C160.303 259.663 145.923 280.343 120.703 287.693L95.4828 290.973C86.3828 286.923 81.6728 284.423 73.4828 278.973C76.1528 270.473 80.3428 259.573 86.8228 253.313C88.6628 251.533 92.3928 250.843 93.4828 247.983C79.5628 246.423 65.8328 243.003 53.1228 237.133C48.7528 240.723 41.8628 248.973 45.4528 254.233C46.0728 255.143 47.3528 256.803 47.4828 256.973C41.2428 251.293 36.9728 243.993 32.4828 236.973C34.5628 234.213 34.6028 230.923 35.4828 227.973C39.6628 228.043 50.0028 236.563 52.7728 235.843C55.5428 235.123 60.7128 226.783 62.7728 225.273C65.6528 223.173 75.2628 216.963 78.4728 215.473C105.123 203.123 138.133 211.483 159.983 185.983C180.733 161.773 174.653 129.903 202.453 104.453C220.393 88.0226 245.533 86.5225 268.473 82.9725H268.463Z" fill="#1D9B89"/>
<path d="M263.463 60.9725C261.673 61.6425 263.303 64.0925 263.723 65.2125C266.273 72.0425 266.763 75.5325 268.463 81.9725C268.543 82.2825 268.383 82.6625 268.463 82.9725C245.523 86.5225 220.393 88.0326 202.443 104.453C174.643 129.903 180.713 161.773 159.973 185.983C138.123 211.483 105.113 203.123 78.4628 215.473C75.2528 216.963 65.6428 223.183 62.7628 225.273C60.6928 226.773 55.5928 235.103 52.7628 235.843C49.9328 236.583 39.6428 228.053 35.4728 227.973C35.6428 227.423 35.3028 226.513 35.4728 225.973C38.1928 217.203 43.8828 206.773 49.4628 199.463C70.4428 172.013 105.693 169.033 126.453 141.453C148.083 112.713 140.583 75.3825 181.463 61.4625C198.343 55.7125 216.893 58.4226 233.743 53.7426C238.073 52.5426 245.993 48.8225 249.473 45.9725C254.273 50.4425 259.203 56.0525 263.473 60.9725H263.463Z" fill="#3CBC9A"/>
<path d="M249.463 45.9725C245.983 48.8225 238.063 52.5326 233.733 53.7426C216.893 58.4226 198.333 55.7125 181.453 61.4625C140.573 75.3825 148.073 112.713 126.443 141.453C105.683 169.033 70.4328 172.023 49.4528 199.463C43.8628 206.773 38.1828 217.203 35.4628 225.973C30.0528 225.713 27.3328 220.493 22.4628 218.973C18.9528 211.033 13.8328 199.633 13.4628 190.973C13.2028 184.953 15.2129 182.043 18.0429 177.053C36.4629 144.643 72.6228 140.543 94.9728 113.983C111.403 94.4625 113.063 69.2626 132.933 50.9426C149.063 36.0626 166.263 32.1326 185.123 23.1326C189.603 20.9926 193.373 17.3425 198.463 15.9725C217.493 22.4925 234.723 32.2325 249.463 45.9725Z" fill="#1D9B89"/>
<path d="M198.463 15.9725C193.373 17.3425 189.613 20.9925 185.123 23.1326C166.263 32.1325 149.063 36.0625 132.933 50.9425C113.063 69.2625 111.403 94.4725 94.9728 113.983C72.6128 140.543 36.4629 144.643 18.0429 177.053C15.2129 182.043 13.2028 184.953 13.4628 190.973C8.24279 176.473 9.29277 160.683 9.44277 145.463C9.46277 143.773 8.80279 141.013 10.4628 139.973C10.4128 143.233 10.0728 146.813 10.9628 149.973C26.8028 130.773 52.6428 127.213 72.1928 113.203C83.5728 105.053 88.0828 92.8425 68.9928 93.9825C61.6428 94.4225 54.4828 95.9625 48.2528 97.2525C38.1028 99.3425 27.8528 101.573 18.4628 105.983C45.6528 32.3825 121.763 -10.3075 198.463 15.9825V15.9725Z" fill="#3CBC9A"/>
<path d="M256.463 256.973C247.483 266.653 239.233 272.773 228.463 279.973C218.513 279.223 208.433 273.943 198.523 277.533C191.003 280.263 179.323 291.323 176.483 298.503C175.763 300.333 174.313 301.303 177.463 300.973C147.433 306.383 123.223 303.323 95.4628 290.973L120.683 287.693C145.913 280.343 160.293 259.673 180.933 246.933C182.523 245.953 184.873 246.183 185.303 245.763C185.773 245.303 184.963 243.623 186.113 242.943C189.073 241.203 197.903 237.743 201.473 236.493C222.003 229.273 252.333 231.113 256.453 256.973H256.463Z" fill="#0D7E74"/>
<path d="M265.463 156.973C268.893 156.213 266.303 158.903 266.453 158.963C268.283 159.733 271.913 158.253 273.953 158.163C277.593 157.993 279.403 157.583 282.163 157.343C287.173 156.923 292.393 157.003 297.453 156.973C297.253 176.883 292.143 194.883 284.453 212.973C283.073 213.553 280.273 211.943 279.643 212.223C279.513 212.273 279.563 213.693 278.733 213.913C265.973 217.343 248.803 209.723 238.803 202.093C237.803 201.333 235.583 201.113 235.463 200.983C235.223 200.723 235.703 199.273 235.463 198.983C237.423 199.013 238.243 197.633 239.473 196.503C252.503 184.513 256.593 174.613 263.463 158.983C263.543 158.793 264.963 158.193 265.463 156.983V156.973Z" fill="#0D7E74"/>
<path d="M18.4628 105.973C27.8528 101.573 38.0929 99.3326 48.2529 97.2426C54.4829 95.9626 61.6429 94.4126 68.9929 93.9726C88.0829 92.8326 83.5728 105.043 72.1928 113.193C52.6328 127.203 26.8028 130.763 10.9628 149.963C10.0728 146.803 10.4228 143.223 10.4628 139.963C10.4828 138.373 10.2428 136.423 10.4628 134.963C10.9328 134.823 11.3628 134.443 11.4628 133.963C11.5228 133.663 11.4428 133.303 11.4628 132.963C13.7728 126.983 14.6529 120.563 16.3729 114.363C16.6929 113.193 18.0828 110.613 16.4628 109.963C16.9828 108.403 18.0428 107.113 18.4628 105.963V105.973Z" fill="#1D9B89"/>
<path d="M47.4627 256.973C47.3327 256.803 46.0528 255.143 45.4328 254.233C41.8428 248.973 48.7327 240.723 53.1027 237.133C65.8127 243.003 79.5427 246.423 93.4627 247.983C92.3627 250.843 88.6428 251.533 86.8028 253.313C80.3228 259.573 76.1427 270.473 73.4627 278.973C64.6627 273.123 53.9527 265.503 47.4627 256.973Z" fill="#0D7E74"/>
<path d="M228.463 279.973C211.233 291.483 198.243 297.233 177.463 300.973C174.313 301.303 175.763 300.333 176.483 298.503C179.323 291.323 191.003 280.263 198.523 277.533C208.423 273.943 218.513 279.213 228.463 279.973Z" fill="#1D9B89"/>
<path d="M276.463 79.9725C283.763 92.5825 288.783 102.423 292.463 116.973C291.963 121.053 276.103 128.723 274.473 126.973C274.783 112.973 273.233 99.2626 270.213 85.6826C269.873 84.1426 268.523 83.2025 268.463 82.9725C268.383 82.6625 268.543 82.2825 268.463 81.9725L276.463 79.9725Z" fill="#0D7E74"/>
<path d="M276.463 79.9725L268.463 81.9725C266.763 75.5325 266.273 72.0325 263.723 65.2125C263.303 64.1025 261.683 61.6425 263.463 60.9725C269.643 68.1025 271.893 72.0725 276.463 79.9725Z" fill="#1D9B89"/>
<path d="M35.4628 225.973C35.2928 226.513 35.6328 227.423 35.4628 227.973C34.5828 230.923 34.5428 234.213 32.4628 236.973C28.3028 230.473 25.7128 226.313 22.4628 218.973C27.3328 220.493 30.0528 225.713 35.4628 225.973Z" fill="#0D7E74"/>
<path d="M11.4628 132.973C11.9728 125.443 14.0828 117.183 16.4628 109.973C18.0828 110.623 16.7028 113.213 16.3728 114.373C14.6528 120.573 13.7728 126.993 11.4628 132.973Z" fill="#3CBC9A"/>
<path d="M10.4628 134.973C10.5328 134.493 10.9728 134.073 11.4628 133.973C11.3628 134.453 10.9328 134.833 10.4628 134.973Z" fill="#3CBC9A"/>
<path d="M235.463 200.973C198.233 236.003 146.073 256.603 94.4628 248.473C122.723 231.493 156.403 238.023 181.113 213.623C208.453 186.623 196.083 140.953 244.433 130.453L273.453 127.973C272.333 138.033 269.263 147.673 265.453 156.963C264.953 158.173 263.533 158.773 263.453 158.963C239.343 152.783 215.653 171.643 231.853 195.563C232.453 196.453 234.623 197.973 235.453 198.963C235.693 199.253 235.213 200.703 235.453 200.963L235.463 200.973Z" fill="#3CBC9A"/>
<path d="M263.463 158.973C256.603 174.603 252.503 184.503 239.473 196.493C238.243 197.623 237.423 199.003 235.463 198.973C234.633 197.983 232.463 196.463 231.863 195.573C215.663 171.643 239.353 152.793 263.463 158.973Z" fill="#1D9B89"/>
</g>
<defs>
<clipPath id="clip0_4_449">
<rect width="306" height="313" fill="white"/>
</clipPath>
</defs>
</svg>
