<svg width="315" height="319" viewBox="0 0 315 319" fill="none" xmlns="http://www.w3.org/2000/svg">
<g clip-path="url(#clip0_4_451)">
<path d="M191.055 2.65543C193.295 3.90543 199.365 5.9854 203.295 7.0054C314.975 35.9254 348.265 171.695 277.255 258.905C206.245 346.115 74.7352 334.585 21.0052 239.175C-42.5148 126.365 46.4753 -8.75459 174.775 0.445406C176.935 0.595406 190.325 2.25543 191.055 2.65543ZM44.2853 63.4354C16.8153 95.9254 11.3552 131.615 10.2852 141.435C7.85521 163.725 8.08521 190.195 18.2852 210.435C19.3652 223.155 37.0753 249.645 45.7753 259.445C80.5953 298.715 125.915 310.525 176.735 308.475C177.345 308.455 177.215 306.455 177.905 306.365C182.835 305.735 187.785 306.385 193.855 304.515C239.915 290.345 277.365 256.625 295.305 211.435C297.905 204.885 300.935 197.515 301.305 190.435C306.775 173.015 307.195 153.645 305.305 135.435C304.375 126.485 302.735 119.915 300.305 111.435C296.155 96.9354 290.925 83.9954 281.305 72.4354C280.945 70.0254 278.895 68.1154 277.305 66.4354C276.985 66.0954 276.605 65.7754 276.305 65.4354L267.845 53.3954C230.035 15.0754 170.365 -2.5846 118.305 15.4354C104.655 18.6754 87.0152 25.0854 70.3052 38.4354C67.0152 41.0654 64.0252 43.7554 61.3052 46.4354C56.7952 50.2554 50.6852 55.8854 44.3052 63.4354H44.2853Z" fill="#31284C"/>
<path d="M15.6652 115.335C18.5152 106.505 22.8353 95.8054 29.5053 84.4254C34.3953 76.0954 39.5253 69.1154 44.2753 63.4354C44.5153 63.2054 44.8653 62.8654 45.2753 62.4354C49.3853 58.1854 50.4153 55.3355 52.5153 52.7055C54.7753 49.8855 56.2153 51.2754 61.2753 46.4354C64.7353 43.1254 67.7353 40.3754 70.2753 38.4354C78.8153 31.8954 84.7152 28.0354 90.7252 25.0454C107.595 16.6654 110.835 17.9954 118.275 15.4354C170.365 -2.53456 230.005 15.0755 267.815 53.3955L276.275 65.4354C275.325 64.3754 273.685 62.4054 272.285 60.9254C267.185 55.5154 261.575 50.6154 256.285 45.4354C256.735 49.3954 259.585 52.4054 261.035 56.1754C299.635 156.785 195.155 264.295 92.9053 249.305C87.3753 248.495 69.2752 244.725 64.9652 242.475C63.7752 241.855 64.1453 237.465 59.5253 236.605C56.8753 236.105 55.2152 237.635 52.6052 236.695C44.4752 233.755 27.6653 219.215 21.8253 212.405C20.7153 211.115 19.6353 209.125 19.2553 207.445C17.6753 207.135 18.1853 209.465 18.2653 210.435C12.8553 194.905 6.92527 170.585 10.2653 141.435C11.3853 131.685 13.3652 122.945 15.6552 115.335H15.6652ZM148.515 42.1954C154.455 48.1454 163.635 37.4354 156.275 32.9454C150.535 29.4454 143.555 37.2254 148.515 42.1954ZM95.0652 46.7254C75.2152 49.0854 49.2953 78.4454 64.7753 96.4454C82.3053 116.825 118.285 92.2754 121.195 69.8554C123.295 53.6654 110.085 44.9354 95.0652 46.7254ZM231.975 106.115C241.765 97.4254 241.325 78.0255 232.805 68.4055C214.285 47.5055 181.195 63.0954 190.795 92.4154C196.075 108.545 218.535 118.045 231.975 106.105V106.115ZM44.9752 150.125C52.2352 143.575 46.1452 126.255 35.3452 134.005C24.3752 141.885 35.8152 158.375 44.9752 150.125ZM238.425 144.585C234.655 150.545 246.015 156.615 247.135 148.695C247.785 144.105 239.895 142.255 238.425 144.585ZM94.1052 155.705C56.7952 158.095 59.3852 216.885 92.2352 222.985C138.285 231.525 138.495 152.855 94.1052 155.705ZM167.595 213.755C162.455 218.455 166.465 225.295 172.785 225.295C185.665 225.295 177.585 204.625 167.595 213.755Z" fill="#E2D5C0"/>
<path d="M18.2852 210.435C18.2052 209.465 17.6852 207.125 19.2752 207.445C19.6552 209.125 20.7352 211.115 21.8452 212.405C27.6852 219.205 44.4853 233.755 52.6253 236.695C55.2353 237.635 56.8953 236.105 59.5453 236.605C64.1653 237.475 63.7952 241.855 64.9852 242.475C69.2852 244.725 87.3952 248.495 92.9252 249.305C195.165 264.295 299.645 156.785 261.055 56.1754C259.605 52.4054 256.745 49.3954 256.305 45.4354C261.595 50.6154 267.215 55.5154 272.305 60.9254C273.695 62.4054 275.335 64.3754 276.295 65.4354C276.595 65.7754 276.975 66.0954 277.295 66.4354C277.605 68.9754 279.785 70.6154 281.295 72.4354C290.915 83.9954 296.145 96.9354 300.295 111.435C298.615 112.895 300.145 116.765 300.595 118.645C301.585 122.795 302.475 126.725 303.315 130.925C303.655 132.645 303.465 134.425 305.305 135.435C307.195 153.645 306.775 173.015 301.305 190.435C299.625 195.775 297.455 201.815 295.445 207.075C294.955 208.355 293.175 210.445 295.305 211.435C277.365 256.635 239.925 290.345 193.855 304.515C187.795 306.385 182.835 305.735 177.905 306.365C177.215 306.455 177.345 308.455 176.735 308.475C125.915 310.525 80.6053 298.715 45.7753 259.445C37.0853 249.635 19.3752 223.145 18.2852 210.435Z" fill="#C6B7A9"/>
<path d="M305.285 135.435C303.445 134.415 303.635 132.635 303.295 130.925C302.465 126.725 301.565 122.795 300.575 118.645C300.125 116.775 298.595 112.895 300.275 111.435C302.705 119.915 304.345 126.485 305.275 135.435H305.285Z" fill="#E2D5C0"/>
<path d="M295.285 211.435C293.155 210.445 294.945 208.355 295.425 207.075C297.435 201.815 299.605 195.775 301.285 190.435C300.915 197.515 297.885 204.885 295.285 211.435Z" fill="#E2D5C0"/>
<path d="M281.285 72.4354C279.775 70.6154 277.595 68.9754 277.285 66.4354C278.875 68.1154 280.925 70.0254 281.285 72.4354Z" fill="#E2D5C0"/>
<path d="M94.1052 155.705C138.495 152.855 138.285 231.535 92.2352 222.985C59.3852 216.885 56.7952 158.095 94.1052 155.705Z" fill="#C6B7A9"/>
<path d="M95.0652 46.7254C110.085 44.9354 123.305 53.6754 121.195 69.8554C118.285 92.2754 82.3053 116.825 64.7753 96.4454C49.2953 78.4454 75.2152 49.0854 95.0652 46.7254Z" fill="#C6B7A9"/>
<path d="M231.975 106.115C218.535 118.045 196.075 108.545 190.795 92.4254C181.195 63.1054 214.285 47.5154 232.805 68.4154C241.325 78.0354 241.765 97.4354 231.975 106.125V106.115Z" fill="#C6B7A9"/>
<path d="M44.9752 150.125C35.8152 158.385 24.3752 141.895 35.3452 134.005C46.1352 126.245 52.2252 143.575 44.9752 150.125Z" fill="#C6B7A9"/>
<path d="M167.595 213.755C177.585 204.625 185.655 225.295 172.785 225.295C166.465 225.295 162.455 218.455 167.595 213.755Z" fill="#C6B7A9"/>
<path d="M148.515 42.1954C143.545 37.2154 150.525 29.4454 156.275 32.9454C163.635 37.4354 154.465 48.1454 148.515 42.1954Z" fill="#C6B7A9"/>
<path d="M238.425 144.585C239.895 142.255 247.785 144.105 247.135 148.695C246.015 156.605 234.655 150.545 238.425 144.585Z" fill="#C6B7A9"/>
</g>
<defs>
<clipPath id="clip0_4_451">
<rect width="315" height="319" fill="white"/>
</clipPath>
</defs>
</svg>
