<svg width="321" height="325" viewBox="0 0 321 325" fill="none" xmlns="http://www.w3.org/2000/svg">
<g clip-path="url(#clip0_4_455)">
<path d="M212.174 8.49114C215.504 10.9111 218.424 10.8011 223.414 12.7311C322.704 51.2111 349.914 181.811 284.434 262.701C273.504 276.201 251.514 295.561 235.784 304.051C120.154 366.471 -9.62595 278.371 0.56405 146.831C5.60405 81.7611 64.754 14.5811 129.404 3.67113C133.704 2.95113 139.414 3.71113 141.774 3.22113C142.514 3.07113 142.354 1.39114 143.124 1.21114C156.134 -1.88886 187.444 1.51114 200.904 5.24114C202.654 5.73114 211.704 8.13113 212.184 8.48113L212.174 8.49114ZM236.434 29.2111C229.944 24.1111 220.244 20.4511 212.394 17.7511C134.064 -9.17887 54.674 28.1011 21.264 102.541C6.424 135.601 4.76398 170.101 14.494 205.651C16.144 211.681 18.714 218.571 21.434 224.211C27.724 249.181 59.714 282.611 81.764 295.381C176.844 350.461 294.274 289.711 309.434 183.211C311.604 167.971 312.024 156.661 310.434 141.211C310.364 140.561 310.514 139.861 310.434 139.211C310.134 136.731 308.964 134.171 308.534 131.601C308.014 128.481 309.524 124.451 306.434 122.211C302.334 100.631 291.574 77.6411 277.404 60.7411C269.354 51.1411 248.324 32.2511 236.434 29.2111Z" fill="#31284C"/>
<path d="M236.434 29.2111C235.514 28.9811 234.154 28.2811 233.454 28.7011C251.184 47.6711 261.964 69.9811 265.294 95.8511C265.694 98.9511 267.344 116.181 266.424 117.211C266.004 117.681 261.344 115.491 259.844 115.291C239.824 112.671 237.014 139.251 251.494 149.651C253.184 150.871 259.104 152.951 259.354 153.311C261.414 156.161 246.634 181.981 243.844 186.131C226.504 211.891 198.104 233.151 169.404 244.691C166.854 245.711 161.324 248.391 158.944 248.231C158.124 248.171 159.534 241.221 159.494 239.711C159.184 227.401 147.484 212.041 134.844 210.301C106.974 206.481 89.544 232.371 104.434 256.201C73.764 253.661 40.664 244.011 20.934 219.211C20.134 220.151 21.124 222.971 21.434 224.211C18.714 218.571 16.144 211.681 14.494 205.651C4.75398 170.091 6.424 135.591 21.264 102.541C54.674 28.1111 134.064 -9.16888 212.394 17.7511C220.244 20.4511 229.944 24.1111 236.434 29.2111ZM177.164 36.4411C175.294 36.8311 171.674 39.1311 170.114 40.3811C153.684 53.6511 171.204 77.7211 190.144 66.4111C207.264 56.1911 195.914 32.4911 177.164 36.4311V36.4411ZM112.144 47.4911C103.864 37.3511 81.104 49.7211 77.024 60.3011C70.284 77.7711 90.1241 78.6511 101.574 71.8511C108.024 68.0211 118.024 54.7011 112.134 47.4911H112.144ZM238.134 73.3811C234.374 74.5311 231.754 81.1011 237.084 84.0811C246.814 89.5111 247.144 70.6311 238.134 73.3811ZM62.174 97.4411C42.544 100.771 32.874 133.161 51.764 142.381C73.094 152.791 93.024 120.981 80.434 103.711C75.574 97.0411 70.164 96.0911 62.174 97.4411ZM163.174 105.451C124.264 111.231 127.634 167.671 166.894 167.241C210.544 166.771 206.994 98.9311 163.174 105.451ZM73.2141 175.371C64.0641 176.451 64.2641 189.751 73.2041 191.011C86.3141 192.861 83.1941 174.191 73.2141 175.371ZM191.124 199.501C187.974 195.671 181.604 196.701 180.504 201.821C180.094 203.751 182.364 202.931 182.334 203.661C182.304 204.281 181.014 205.731 181.424 206.201C181.724 206.541 189.494 208.351 190.434 207.761C192.764 206.321 192.894 201.641 191.124 199.491V199.501ZM49.734 224.901C54.584 228.491 63.2041 223.821 63.3241 217.731C63.5341 207.211 44.8741 207.031 46.4441 218.631C46.6141 219.891 48.874 224.261 49.734 224.901Z" fill="#FC7B33"/>
<path d="M236.434 29.2111C248.324 32.2411 269.364 51.1411 277.404 60.7411C291.574 77.6411 302.334 100.631 306.434 122.211C307.274 126.651 307.684 131.291 308.414 135.781C308.724 137.661 307.284 139.781 310.434 139.211C310.514 139.861 310.364 140.561 310.434 141.211C307.554 143.341 310.434 148.111 310.434 149.711V171.711C310.434 174.001 308.734 179.721 308.784 182.761L309.434 183.211C294.274 289.721 176.834 350.461 81.7641 295.381C59.7241 282.611 27.7241 249.181 21.4341 224.211C21.1241 222.971 20.1241 220.161 20.9341 219.211C40.6641 244.011 73.7741 253.661 104.434 256.201C89.5541 232.361 106.984 206.481 134.844 210.301C147.484 212.031 159.184 227.401 159.494 239.711C159.534 241.221 158.124 248.181 158.944 248.231C161.314 248.391 166.854 245.711 169.404 244.691C198.104 233.151 226.514 211.901 243.844 186.131C246.634 181.981 261.414 156.161 259.354 153.311C259.104 152.961 253.184 150.871 251.494 149.651C237.014 139.251 239.824 112.671 259.844 115.291C261.344 115.491 266.004 117.681 266.424 117.211C267.344 116.181 265.694 98.9611 265.294 95.8511C261.964 69.9811 251.184 47.6711 233.454 28.7011C234.154 28.2811 235.514 28.9811 236.434 29.2111Z" fill="#EE5D29"/>
<path d="M309.434 183.211L308.784 182.761C308.724 179.721 310.434 174.001 310.434 171.711V149.711C310.434 148.111 307.554 143.341 310.434 141.211C312.024 156.661 311.604 167.971 309.434 183.211Z" fill="#FC7B33"/>
<path d="M310.434 139.211C307.284 139.781 308.724 137.661 308.414 135.781C307.684 131.291 307.274 126.651 306.434 122.211C309.524 124.451 308.014 128.481 308.534 131.601C308.954 134.161 310.134 136.731 310.434 139.211Z" fill="#FC7B33"/>
<path d="M163.174 105.451C206.984 98.9411 210.544 166.771 166.894 167.241C127.634 167.671 124.264 111.231 163.174 105.451Z" fill="#EE5D29"/>
<path d="M62.1741 97.4411C70.1541 96.0911 75.5741 97.0411 80.4341 103.711C93.0241 120.981 73.094 152.791 51.764 142.381C32.874 133.161 42.5441 100.771 62.1741 97.4411Z" fill="#EE5D29"/>
<path d="M177.164 36.4411C195.914 32.5011 207.274 56.2011 190.144 66.4211C171.204 77.7211 153.674 53.6511 170.114 40.3911C171.674 39.1311 175.294 36.8411 177.164 36.4511V36.4411Z" fill="#EE5D29"/>
<path d="M112.144 47.4912C118.034 54.7012 108.024 68.0312 101.584 71.8512C90.1341 78.6512 70.294 77.7711 77.034 60.3011C81.114 49.7211 103.874 37.3512 112.154 47.4912H112.144Z" fill="#FCC33F"/>
<path d="M49.7341 224.901C48.8741 224.261 46.6141 219.891 46.4441 218.631C44.8741 207.041 63.5342 207.211 63.3242 217.731C63.2042 223.821 54.5841 228.491 49.7341 224.901Z" fill="#EE5D29"/>
<path d="M73.2141 175.371C83.1941 174.191 86.3041 192.851 73.2041 191.011C64.2641 189.751 64.0641 176.461 73.2141 175.371Z" fill="#EE5D29"/>
<path d="M238.134 73.3811C247.144 70.6311 246.824 89.5111 237.084 84.0811C231.744 81.1011 234.364 74.5311 238.134 73.3811Z" fill="#EE5D29"/>
<path d="M191.124 199.501C192.894 201.651 192.764 206.331 190.434 207.771C189.494 208.351 181.724 206.551 181.424 206.211C181.014 205.751 182.314 204.291 182.334 203.671C182.364 202.941 180.094 203.761 180.504 201.831C181.604 196.701 187.974 195.671 191.124 199.511V199.501Z" fill="#EE5D29"/>
</g>
<defs>
<clipPath id="clip0_4_455">
<rect width="321" height="325" fill="white"/>
</clipPath>
</defs>
</svg>
