<svg width="396" height="319" viewBox="0 0 396 319" fill="none" xmlns="http://www.w3.org/2000/svg">
<g clip-path="url(#clip0_4_446)">
<path d="M187.042 0.0573734C196.602 0.897373 204.762 0.0873734 214.042 0.0573734C214.372 0.0573734 214.712 0.0673734 215.042 0.0573734C214.482 3.22737 216.642 1.83737 218.532 2.02737C230.322 3.16737 241.612 6.19737 253.042 9.05737H254.042L256.042 10.0574C280.672 17.1174 301.622 34.4974 318.042 53.0574L325.942 63.6174C332.992 63.9574 339.972 63.1374 347.042 63.0574C347.372 63.0574 347.712 63.0574 348.042 63.0574L370.042 68.0574C370.342 68.1574 370.742 67.9574 371.042 68.0574C374.332 70.0674 377.142 73.3474 381.042 74.0574C381.382 74.3874 381.712 74.7174 382.042 75.0574C382.292 75.3174 385.162 78.4674 385.582 78.9974C407.842 107.037 379.842 142.837 357.132 160.227C357.152 160.677 358.072 160.997 358.042 161.057C355.302 165.887 355.092 163.127 354.042 170.057C352.192 171.097 352.372 172.837 352.072 174.587C350.932 181.037 350.202 187.617 349.042 194.057C348.982 194.377 349.102 194.737 349.042 195.057L337.042 228.057C337.412 229.977 335.442 231.127 335.042 232.057L332.222 235.727L325.042 250.057C314.532 264.357 297.752 280.047 283.042 290.057L262.042 301.557L231.042 313.057C224.912 314.397 218.962 316.117 214.042 316.057C210.712 316.017 207.362 316.077 204.032 316.057V318.057C203.712 318.077 203.372 318.047 203.042 318.057L155.042 312.057C152.392 311.277 149.962 309.727 148.042 309.057L123.662 297.937C112.902 291.647 102.252 285.287 92.8416 276.997C85.4416 270.487 84.2116 263.157 71.0416 268.057C68.3516 267.817 65.7316 267.367 63.0416 267.057C63.6017 263.847 61.4216 265.327 59.5416 265.097C9.56165 258.947 -15.8384 230.137 17.0416 184.057C21.4417 177.887 26.5617 173.467 32.0417 168.057L40.0816 163.397C39.0216 154.227 41.0216 145.417 41.9216 136.427C42.0916 134.787 42.7516 132.097 41.0316 131.057C41.8116 126.457 43.6616 118.597 45.0316 114.057C47.6016 114.557 47.1616 112.897 47.7016 111.277C50.3216 103.357 53.6416 95.7274 57.0316 88.0574C73.5517 50.6974 100.722 30.0974 136.032 13.0574L175.032 2.05737C175.362 2.02737 175.702 2.07737 176.032 2.05737H178.032C182.602 1.64737 182.312 -0.362627 187.032 0.0573734H187.042ZM185.042 8.05737C172.832 9.16737 158.662 11.4974 147.012 15.5274C145.452 16.0674 143.672 16.1774 143.042 18.0574C126.282 21.3374 100.862 42.5774 89.0416 55.0574C79.2416 65.4074 76.1917 70.0174 69.0416 82.0574C62.6816 92.7574 57.5117 102.267 53.0416 114.057C42.6716 141.417 41.9616 174.637 53.0416 202.057C55.2617 207.547 59.4117 218.297 63.4916 222.107C68.6516 226.917 71.7216 225.817 78.0416 226.057V227.057C78.1516 228.297 79.5316 228.037 80.4716 228.107C89.6416 228.827 99.7617 227.487 109.042 228.047L108.042 227.057V226.057C164.722 224.047 225.652 198.307 274.042 170.057C287.372 162.277 300.322 154.717 312.522 145.037C318.222 140.517 340.082 121.507 341.032 115.477C341.982 109.457 332.182 90.1374 329.042 84.0574C322.412 71.1974 318.712 66.5674 309.042 56.0574C301.732 48.1074 297.162 43.7674 288.042 37.0574C280.502 31.5174 275.222 28.3674 267.042 24.0574C262.992 21.9174 258.582 18.7474 254.042 17.0574C256.552 16.0974 252.942 15.5574 252.282 15.3274C232.742 8.72737 210.292 4.37737 189.522 6.03737C187.752 6.17737 186.082 6.38737 185.042 8.05737ZM255.042 191.057C223.632 206.907 186.492 220.907 152.042 228.057C124.202 233.837 85.1816 239.467 57.6016 231.997C38.5616 226.847 25.8517 214.867 35.0416 194.057C36.0716 191.717 40.5616 186.597 40.8916 185.327C41.5416 182.857 39.2716 176.927 39.0316 174.057C38.1016 173.377 31.4416 179.227 30.3816 180.387C29.8816 180.937 30.1817 181.887 30.0417 182.057L28.0417 184.057C27.7516 184.407 27.3717 184.727 27.0417 185.057C26.1617 185.457 25.3117 186.077 25.0417 187.057C24.9717 187.327 25.0617 187.707 25.0417 188.057C10.3917 203.167 1.05165 225.677 19.8016 242.077C57.2717 274.837 150.272 255.087 193.812 241.327C247.112 224.467 350.472 174.657 378.852 125.367C401.802 85.5074 367.602 68.6774 332.052 70.0674C331.332 70.7674 337.772 83.3874 338.542 84.0774C340.292 85.6474 347.852 85.8474 351.982 88.6374C359.462 93.6974 359.802 100.447 356.762 108.287C345.072 138.497 283.702 176.607 255.042 191.067V191.057ZM340.042 199.057C342.602 190.447 346.192 181.877 346.052 172.557C343.122 170.357 342.782 174.087 341.302 175.067C267.942 223.747 204.292 254.337 115.552 266.057C109.012 266.917 102.832 268.867 96.0416 268.047C95.5616 269.657 99.6416 272.557 100.542 273.087C101.602 273.717 102.322 273.707 103.042 274.037C102.532 276.307 104.322 276.137 105.522 277.007C123.712 290.187 147.772 302.907 170.042 306.037C186.062 311.767 203.792 310.157 220.452 307.947C222.112 307.727 223.892 307.367 225.042 306.037C259.372 301.617 298.982 273.147 318.042 245.037C318.802 243.917 319.172 243.507 320.042 242.037C320.252 241.677 320.832 241.407 321.042 241.037C321.232 240.697 321.852 240.417 322.042 240.037C322.402 239.327 322.682 239.067 323.042 238.037C331.532 226.057 335.922 212.907 340.042 199.037V199.057ZM53.0416 221.047L47.5416 210.077C43.2916 214.627 47.7216 220.497 53.0416 221.047Z" fill="#2D184F"/>
<path d="M203.042 318.057C185.832 318.657 171.522 316.907 155.042 312.057L203.042 318.057Z" fill="#24174B"/>
<path d="M17.0416 184.057C-15.8384 230.137 9.57163 258.947 59.5416 265.097C61.4216 265.327 63.5916 263.847 63.0416 267.057C27.0016 262.907 -16.3584 242.007 6.24163 198.757C8.88163 193.707 12.8716 187.867 17.0416 184.057Z" fill="#24174B"/>
<path d="M175.042 2.05737L136.042 13.0574C148.742 6.92737 161.032 3.35737 175.042 2.05737Z" fill="#24174B"/>
<path d="M41.0416 131.057C42.7616 132.087 42.0916 134.777 41.9316 136.427C41.0316 145.417 39.0316 154.227 40.0916 163.397L32.0516 168.057C33.9616 166.167 34.9716 164.487 37.8016 163.827L38.6616 162.107C38.3016 151.697 39.3016 141.297 41.0516 131.057H41.0416Z" fill="#24174B"/>
<path d="M382.042 75.0574C388.532 78.7274 394.282 89.2774 395.032 96.5674C397.762 122.997 376.362 145.127 358.042 161.057C358.072 161.007 357.152 160.677 357.132 160.227C379.832 142.837 407.842 107.037 385.582 78.9974C385.162 78.4674 382.292 75.3174 382.042 75.0574Z" fill="#24174B"/>
<path d="M283.042 290.057C265.902 301.717 251.492 308.577 231.042 313.057L262.042 301.557L283.042 290.057Z" fill="#24174B"/>
<path d="M253.042 9.05737C241.602 6.19737 230.322 3.16737 218.532 2.02737C216.642 1.84737 214.492 3.22737 215.042 0.0573734C218.932 -0.0726266 228.942 1.64737 233.082 2.52737C239.872 3.97737 246.882 5.81737 253.042 9.05737Z" fill="#24174B"/>
<path d="M349.042 194.057C350.202 187.617 350.932 181.027 352.072 174.587C352.382 172.837 352.192 171.097 354.042 170.057C352.852 177.847 353.452 187.167 349.042 194.057Z" fill="#24174B"/>
<path d="M370.042 68.0574L348.042 63.0574C349.452 63.0674 350.922 62.3274 352.362 62.4274C357.252 62.7474 366.322 64.6174 370.042 68.0574Z" fill="#24174B"/>
<path d="M214.042 0.0573734C204.762 0.0873734 196.602 0.897373 187.042 0.0573734H214.042Z" fill="#24174B"/>
<path d="M347.042 63.0574C339.972 63.1474 332.992 63.9574 325.942 63.6174L318.042 53.0574C320.772 56.1474 323.522 59.2174 325.982 62.5474C332.642 62.2274 340.652 60.9274 347.042 63.0574Z" fill="#24174B"/>
<path d="M337.042 228.057L349.042 195.057C347.032 205.877 344.452 214.217 339.802 224.317C339.112 225.817 338.882 227.427 337.042 228.057Z" fill="#24174B"/>
<path d="M57.0416 88.0574C53.6516 95.7274 50.3316 103.357 47.7116 111.277C47.1716 112.907 47.6116 114.557 45.0416 114.057C47.1316 107.117 49.9016 99.9974 52.8516 93.3774C53.6016 91.6874 54.5616 87.6174 57.0416 88.0574Z" fill="#24174B"/>
<path d="M214.042 316.057C211.242 318.247 207.332 317.897 204.042 318.057V316.057C207.362 316.077 210.712 316.017 214.042 316.057Z" fill="#24174B"/>
<path d="M71.0416 268.057C84.2116 263.157 85.4416 270.487 92.8416 276.997C102.252 285.287 112.912 291.637 123.662 297.937L148.042 309.057C128.662 302.317 112.502 294.007 96.1216 281.497L83.4016 268.227C79.3216 267.587 75.1116 268.417 71.0516 268.047L71.0416 268.057Z" fill="#24174B"/>
<path d="M325.042 250.057L332.222 235.727L335.042 232.057C331.722 239.707 330.112 243.157 325.042 250.057Z" fill="#24174B"/>
<path d="M371.042 68.0574C375.692 69.5874 377.672 70.8474 381.042 74.0574C377.142 73.3474 374.332 70.0674 371.042 68.0574Z" fill="#24174B"/>
<path d="M256.042 10.0574L254.042 9.05737C255.012 7.10737 255.882 10.0074 256.042 10.0574Z" fill="#24174B"/>
<path d="M178.042 2.05737H176.042C177.002 1.99737 177.922 2.06737 178.042 2.05737Z" fill="#24174B"/>
<path d="M255.042 191.057C283.702 176.597 345.072 138.477 356.762 108.277C359.792 100.437 359.462 93.6874 351.982 88.6274C347.852 85.8374 340.292 85.6374 338.542 84.0674C337.782 83.3874 331.332 70.7674 332.052 70.0574C367.602 68.6674 401.812 85.4974 378.852 125.357C350.472 174.647 247.112 224.457 193.812 241.317C150.282 255.087 57.2716 274.837 19.8016 242.067C1.05161 225.667 10.3916 203.157 25.0416 188.047C24.9816 189.037 25.0516 190.057 25.0416 191.047C31.0616 189.247 30.6416 193.887 35.0516 194.047C25.8616 214.857 38.5716 226.837 57.6116 231.987C85.1916 239.457 124.212 233.827 152.052 228.047L157.042 230.037L101.852 240.347L97.0516 244.037C100.452 243.737 105.282 245.277 108.492 244.977C152.772 240.917 208.952 222.087 248.312 200.807C250.572 199.587 260.132 194.167 252.052 194.037L255.052 191.047L255.042 191.057ZM357.652 135.677C361.252 131.427 374.832 115.557 362.042 116.497C348.582 134.237 332.412 148.717 315.512 163.027C313.642 164.607 305.472 169.617 305.152 170.167C303.902 172.327 307.972 175.537 309.712 175.847C311.702 176.197 333.782 158.407 337.042 155.567C343.392 150.057 352.302 141.977 357.642 135.677H357.652ZM18.2916 233.807C24.3216 239.847 30.8116 226.547 21.4516 226.047C17.0316 225.807 15.6916 231.197 18.2916 233.807Z" fill="#EC491D"/>
<path d="M288.042 37.0574C287.682 39.3774 285.552 41.3174 284.042 43.0574C277.402 50.7174 267.912 62.9774 259.952 68.4674C246.082 78.0474 228.542 83.7374 214.512 93.0274C196.492 104.947 186.862 122.487 164.822 129.337C129.692 140.267 116.632 118.737 85.5316 117.067C74.6216 116.477 63.8616 119.227 53.0416 120.057C53.1216 119.417 53.0116 118.717 53.0416 118.057C53.1016 116.727 53.0016 115.387 53.0416 114.057C57.5116 102.267 62.6816 92.7574 69.0416 82.0574C71.2416 82.8674 72.9116 84.6074 75.0416 85.5574C107.702 100.147 164.732 84.7574 196.722 71.2274C222.412 60.3674 247.762 44.1274 267.042 24.0474C275.222 28.3574 280.502 31.5074 288.042 37.0474V37.0574Z" fill="#F56610"/>
<path d="M224.042 10.0574C232.822 11.1774 245.792 13.9874 254.042 17.0574C258.582 18.7474 262.992 21.9174 267.042 24.0574C247.762 44.1274 222.402 60.3774 196.722 71.2374C164.732 84.7574 107.702 100.147 75.0416 85.5674C72.9116 84.6174 71.2416 82.8774 69.0416 82.0674C76.1916 70.0274 79.2416 65.4174 89.0416 55.0674C95.4816 56.9874 102.402 55.7274 109.042 56.0674C108.892 56.5174 109.082 57.4274 109.042 58.0674C108.942 59.8274 108.602 62.1874 110.012 63.5974C118.702 69.4074 132.312 62.9274 138.092 55.5874C139.182 54.1974 138.792 52.4574 139.032 52.0774C139.142 51.8974 141.632 50.2174 142.032 50.0774C158.482 44.3074 172.032 40.7974 188.072 32.6174C199.812 26.6274 213.082 19.7074 222.032 10.0774C222.682 10.1474 223.382 9.99737 224.032 10.0774L224.042 10.0574ZM109.702 74.1774L105.522 77.0274C103.402 81.0274 108.852 82.3674 111.612 80.1174L111.922 75.6874L109.702 74.1774Z" fill="#FB8A19"/>
<path d="M274.042 170.057C225.652 198.307 164.722 224.047 108.042 226.057C98.4516 226.397 87.6216 226.437 78.0416 226.057C71.7216 225.807 68.6516 226.907 63.4916 222.107C59.4016 218.297 55.2516 207.547 53.0416 202.057C53.0716 200.727 53.0016 199.387 53.0416 198.057C53.1816 193.537 55.2116 192.167 59.6416 190.157C86.1216 178.157 105.112 198.077 128.832 202.757C154.662 207.847 180.772 203.157 203.342 189.857C221.942 178.897 233.842 160.857 251.722 149.237C265.872 140.047 282.692 135.607 296.042 125.057C292.572 133.737 289.262 142.987 284.902 151.417C281.572 157.837 276.852 163.357 274.042 170.057Z" fill="#F15E0F"/>
<path d="M103.042 274.057C102.322 273.727 101.602 273.737 100.542 273.107C99.6417 272.577 95.5717 269.667 96.0417 268.067C102.832 268.877 109.002 266.937 115.552 266.077C204.292 254.347 267.932 223.757 341.302 175.087C342.782 174.107 343.112 170.377 346.052 172.577C346.192 181.897 342.602 190.457 340.042 199.077C311.252 221.237 282.412 240.807 249.012 255.547C212.102 271.827 172.532 284.107 131.672 279.947C124.752 279.247 108.862 276.747 103.042 274.077V274.057Z" fill="#D93E0D"/>
<path d="M323.042 238.057C323.442 236.927 323.662 235.717 324.052 234.577L322.062 234.087C318.322 240.807 310.512 245.397 304.172 249.697C267.282 274.717 236.832 282.197 196.502 297.027C189.682 299.537 183.212 304.907 176.042 307.067C174.492 306.907 172.002 306.337 170.042 306.067C147.772 302.947 123.702 290.217 105.522 277.037C104.322 276.167 102.532 276.327 103.042 274.067C108.862 276.737 124.742 279.237 131.672 279.937C172.532 284.087 212.092 271.817 249.012 255.537C282.422 240.797 311.262 221.227 340.042 199.067C335.922 212.937 331.532 226.087 323.042 238.067V238.057Z" fill="#F56610"/>
<path d="M222.042 10.0574C213.092 19.6874 199.822 26.6174 188.082 32.5974C172.042 40.7774 158.492 44.2874 142.042 50.0574C145.022 32.7874 125.722 41.3274 117.712 47.2274C116.022 48.4774 109.522 54.5774 109.042 56.0574C102.402 55.7174 95.4816 56.9774 89.0416 55.0574C100.862 42.5774 126.282 21.3374 143.042 18.0574C172.692 12.2574 189.302 6.38737 222.042 10.0574Z" fill="#FCBA27"/>
<path d="M176.042 307.057C183.212 304.897 189.682 299.517 196.502 297.017C236.832 282.187 267.282 274.717 304.172 249.687C310.512 245.387 318.322 240.797 322.062 234.077L324.052 234.567C323.662 235.707 323.442 236.927 323.042 238.047C322.682 239.077 322.402 239.337 322.042 240.047L321.042 241.047C320.832 241.417 320.252 241.687 320.042 242.047L318.042 245.047C298.982 273.157 259.372 301.627 225.042 306.047C220.182 306.677 211.812 308.047 207.542 308.047H185.542C183.992 308.047 178.382 307.287 176.042 307.047V307.057Z" fill="#D93E0D"/>
<path d="M274.042 170.057C276.852 163.357 281.572 157.837 284.902 151.417C289.272 142.987 292.572 133.747 296.042 125.057C296.452 124.037 297.682 123.027 298.042 122.057C299.852 121.937 301.142 121.127 302.542 120.057C310.422 114.087 319.602 102.447 324.232 93.7374C326.052 90.3174 325.782 86.0874 329.042 84.0474C332.182 90.1274 341.982 109.447 341.032 115.467C340.082 121.487 318.222 140.507 312.522 145.027C300.322 154.707 287.372 162.267 274.042 170.047V170.057Z" fill="#D93E0D"/>
<path d="M255.042 191.057L252.042 194.047C260.122 194.177 250.562 199.597 248.302 200.817C208.942 222.097 152.762 240.927 108.482 244.987C105.272 245.277 100.442 243.747 97.0416 244.047L101.842 240.357L157.032 230.047L152.042 228.057C186.492 220.907 223.632 206.907 255.042 191.057Z" fill="#F56610"/>
<path d="M329.042 84.0574C325.782 86.0874 326.042 90.3274 324.232 93.7474C319.602 102.457 310.432 114.087 302.542 120.067C301.142 121.127 299.862 121.947 298.042 122.067C306.442 99.7074 304.672 93.7374 305.042 71.0674C305.062 69.8374 304.822 68.1074 305.042 67.0674C305.082 66.8874 306.282 66.1074 306.542 65.1074C307.352 62.0774 308.192 59.0674 309.042 56.0674C318.712 66.5774 322.412 71.2074 329.042 84.0674V84.0574Z" fill="#F15E0F"/>
<path d="M288.042 37.0574C297.162 43.7674 301.732 48.1074 309.042 56.0574C308.192 59.0574 307.352 62.0674 306.542 65.0974C306.282 66.0874 305.072 66.8774 305.042 67.0574C300.782 57.5274 294.392 46.3574 284.042 43.0574C285.552 41.3174 287.682 39.3774 288.042 37.0574Z" fill="#FB8A19"/>
<path d="M30.0416 182.057C30.1816 181.887 29.8816 180.937 30.3816 180.387C31.4416 179.227 38.1016 173.387 39.0316 174.057C39.2716 176.927 41.5516 182.857 40.8916 185.327C40.5516 186.597 36.0716 191.717 35.0416 194.057C30.6416 193.907 31.0516 189.257 25.0316 191.057C25.0516 190.067 24.9816 189.047 25.0316 188.057C25.0516 187.707 24.9616 187.327 25.0316 187.057C26.2316 186.827 26.4716 185.617 27.0316 185.057C27.3616 184.727 27.7416 184.407 28.0316 184.057C28.4416 183.567 29.2716 182.967 30.0316 182.057H30.0416Z" fill="#D63423"/>
<path d="M224.042 10.0574C223.392 9.97737 222.692 10.1274 222.042 10.0574C189.302 6.38737 172.692 12.2574 143.042 18.0574C143.672 16.1774 145.462 16.0674 147.012 15.5274C158.652 11.4974 172.832 9.16737 185.042 8.05737C197.952 6.88737 211.432 5.81737 224.042 10.0574Z" fill="#FB8A19"/>
<path d="M53.0416 118.057C49.5416 125.547 47.6116 135.787 47.0416 144.057C46.3416 154.177 46.9616 165.197 48.0416 175.057C48.8816 182.717 49.6616 191.037 53.0416 198.057C53.0016 199.387 53.0716 200.727 53.0416 202.057C41.9616 174.637 42.6716 141.417 53.0416 114.057C53.0016 115.387 53.1016 116.727 53.0416 118.057Z" fill="#24174B"/>
<path d="M176.042 307.057C178.382 307.297 183.992 308.057 185.542 308.057H207.542C211.812 308.057 220.182 306.687 225.042 306.057C223.892 307.387 222.112 307.747 220.452 307.967C203.802 310.177 186.072 311.787 170.042 306.057C172.002 306.327 174.492 306.897 176.042 307.057Z" fill="#EC491D"/>
<path d="M185.042 8.05737C186.082 6.38737 187.752 6.17737 189.522 6.03737C210.292 4.38737 232.742 8.73737 252.282 15.3274C252.952 15.5474 256.552 16.0874 254.042 17.0574C245.792 13.9874 232.822 11.1774 224.042 10.0574C211.432 5.81737 197.952 6.88737 185.042 8.05737Z" fill="#24174B"/>
<path d="M53.0416 221.047C47.7316 220.497 43.2916 214.627 47.5416 210.077L53.0416 221.047Z" fill="#FDFAED"/>
<path d="M108.042 227.057L109.042 228.047C99.7616 227.487 89.6416 228.827 80.4716 228.107C79.5316 228.037 78.1416 228.297 78.0416 227.057H108.042Z" fill="#24174B"/>
<path d="M108.042 226.057V227.057H78.0416V226.057C87.6216 226.437 98.4516 226.397 108.042 226.057Z" fill="#D63423"/>
<path d="M318.042 245.057L320.042 242.057C319.172 243.527 318.802 243.937 318.042 245.057Z" fill="#F56610"/>
<path d="M321.042 241.057L322.042 240.057C321.852 240.437 321.232 240.717 321.042 241.057Z" fill="#F56610"/>
<path d="M25.0416 187.057C25.3116 186.077 26.1616 185.457 27.0416 185.057C26.4816 185.617 26.2416 186.827 25.0416 187.057Z" fill="#EC491D"/>
<path d="M28.0416 184.057L30.0416 182.057C29.2816 182.967 28.4516 183.567 28.0416 184.057Z" fill="#EC491D"/>
<path d="M357.652 135.677C352.322 141.977 343.402 150.067 337.052 155.567C333.792 158.397 311.712 176.197 309.722 175.847C307.982 175.537 303.912 172.337 305.162 170.167C305.472 169.627 313.652 164.607 315.522 163.027C332.422 148.717 348.592 134.237 362.052 116.497C374.832 115.557 361.252 131.427 357.662 135.677H357.652Z" fill="#FB8A19"/>
<path d="M18.2917 233.807C15.6917 231.207 17.0317 225.807 21.4517 226.047C30.8117 226.547 24.3217 239.837 18.2917 233.807Z" fill="#FB8A19"/>
<path d="M284.042 43.0574C294.392 46.3574 300.782 57.5274 305.042 67.0574C304.822 68.0974 305.062 69.8274 305.042 71.0574C302.622 70.5274 302.972 72.2874 302.222 73.6874C286.792 102.397 262.662 106.267 236.662 120.177C214.272 132.157 203.802 156.747 180.732 167.247C164.062 174.827 144.872 175.647 127.222 171.387C101.432 165.157 76.1216 143.177 48.5016 158.027L48.0416 175.067C46.9616 165.207 46.3416 154.187 47.0416 144.067C50.2616 144.627 48.7316 142.447 49.0116 140.577C50.0416 133.687 52.2116 126.627 53.0416 120.067C63.8616 119.237 74.6216 116.487 85.5316 117.077C116.642 118.747 129.692 140.277 164.822 129.347C186.862 122.497 196.492 104.957 214.512 93.0374C228.552 83.7474 246.082 78.0574 259.952 68.4774C267.912 62.9874 277.392 50.7274 284.042 43.0674V43.0574Z" fill="#FCBA27"/>
<path d="M53.0416 120.057C52.2116 126.617 50.0416 133.677 49.0116 140.567C48.7316 142.437 50.2616 144.617 47.0416 144.057C47.6116 135.787 49.5416 125.547 53.0416 118.057C53.0116 118.717 53.1216 119.417 53.0416 120.057Z" fill="#BBD157"/>
<path d="M109.042 56.0574C109.522 54.5774 116.022 48.4774 117.712 47.2274C125.712 41.3274 145.022 32.7774 142.042 50.0574C141.642 50.1974 139.152 51.8774 139.042 52.0574C135.932 49.5374 131.772 53.2674 128.422 53.9374C123.382 54.9474 118.302 54.4774 113.722 55.2774C110.792 55.7974 111.622 58.2274 109.042 58.0474C109.082 57.4074 108.892 56.4974 109.042 56.0474V56.0574Z" fill="#FB8A19"/>
<path d="M139.042 52.0574C138.792 52.4474 139.192 54.1874 138.102 55.5674C132.322 62.9074 118.702 69.3874 110.022 63.5774C108.602 62.1674 108.942 59.8174 109.052 58.0474C111.632 58.2174 110.802 55.7974 113.732 55.2774C118.312 54.4674 123.402 54.9474 128.432 53.9374C131.782 53.2674 135.942 49.5274 139.052 52.0574H139.042Z" fill="#FCBA27"/>
<path d="M109.702 74.1774L111.922 75.6874L111.612 80.1174C108.852 82.3674 103.402 81.0374 105.522 77.0274L109.702 74.1774Z" fill="#FCBA27"/>
<path d="M305.042 71.0574C304.672 93.7274 306.442 99.6974 298.042 122.057C297.682 123.027 296.452 124.037 296.042 125.057C282.702 135.617 265.872 140.047 251.722 149.237C233.842 160.857 221.952 178.897 203.342 189.857C180.772 203.157 154.672 207.847 128.832 202.757C105.102 198.077 86.1116 178.157 59.6416 190.157C55.2116 192.167 53.1816 193.537 53.0416 198.057C49.6616 191.037 48.8816 182.717 48.0416 175.057L48.5016 158.017C76.1116 143.167 101.432 165.147 127.222 171.377C144.872 175.647 164.062 174.817 180.732 167.237C203.812 156.737 214.272 132.147 236.662 120.167C262.662 106.257 286.792 102.387 302.222 73.6774C302.972 72.2774 302.622 70.5174 305.042 71.0474V71.0574Z" fill="#FB8A19"/>
</g>
<defs>
<clipPath id="clip0_4_446">
<rect width="396" height="319" fill="white"/>
</clipPath>
</defs>
</svg>
