<svg width="401" height="316" viewBox="0 0 401 316" fill="none" xmlns="http://www.w3.org/2000/svg">
<g clip-path="url(#clip0_4_453)">
<path d="M189.054 212.958C190.354 213.108 191.744 212.848 193.044 212.958V214.948H189.054C189.114 214.308 188.904 213.458 189.054 212.958Z" fill="#24174B"/>
<path d="M300.054 36.9581C302.104 37.0381 302.794 38.2381 304.024 39.4781C311.494 47.0481 318.634 54.7281 325.674 62.7081C345.604 56.8981 393.354 59.0881 399.374 84.1381C405.394 109.188 383.284 131.588 367.074 146.468C362.994 150.218 357.814 153.928 353.274 157.158C353.424 197.568 337.874 238.938 309.084 267.478C286.554 289.808 262.804 305.628 231.054 311.948C231.564 309.588 229.884 309.838 228.424 309.128C219.714 304.948 216.074 308.068 207.524 307.958C205.604 307.928 203.494 308.918 204.054 305.948C255.734 304.428 300.604 273.288 325.864 229.258C337.164 209.558 341.944 188.428 344.054 165.958L299.064 195.948C253.074 221.638 204.614 244.578 153.064 256.948C138.994 260.318 125.404 262.078 111.064 263.948L117.054 259.948H70.0638C79.0438 260.538 105.084 259.388 113.564 257.718C199.664 240.688 293.294 202.478 360.084 142.458C376.454 127.748 411.584 91.0181 379.284 74.2281C369.454 69.1181 351.704 68.0181 340.584 68.9581C337.374 69.2281 334.224 70.3881 331.074 70.9481C334.704 83.8881 342.794 79.0381 353.294 80.2081C377.514 82.9181 376.554 99.0481 363.074 114.928C328.904 155.188 246.784 197.338 197.254 215.648C195.814 216.178 193.544 215.698 193.074 215.928V214.928L194.084 210.918L197.104 211.418L199.064 213.918V208.918C196.654 208.678 189.724 210.688 189.074 212.918C187.804 212.768 185.784 213.508 185.074 211.918C193.214 209.088 201.194 205.748 209.164 202.458C210.694 201.828 212.664 202.568 212.074 199.918C216.834 200.288 221.834 197.398 226.264 195.608C257.814 182.858 288.974 162.718 316.074 142.918C316.724 142.438 318.494 142.158 319.794 141.178C323.474 138.408 339.524 126.758 340.084 123.368C340.374 121.588 338.404 113.018 337.804 110.688C334.384 97.4981 328.894 88.1481 322.074 76.9181C321.754 76.3881 321.524 75.6481 321.074 74.9181C320.744 74.3881 320.544 73.6481 320.074 72.9181C317.254 68.5081 313.944 63.4281 311.074 58.9181C319.194 50.8381 306.614 45.2281 301.474 39.9681C300.334 38.7981 300.194 37.0281 300.074 36.9181L300.054 36.9581ZM361.664 104.578C363.864 100.688 366.164 94.7681 362.034 91.4681C359.004 89.0481 340.734 85.8981 340.044 89.4781L348.054 118.948C350.584 114.838 355.714 112.008 358.494 108.888C358.674 108.688 361.514 104.808 361.654 104.578H361.664Z" fill="#24174B"/>
<path d="M236.054 4.95808C236.384 5.00808 236.724 4.90808 237.054 4.95808L280.054 21.9581C282.264 23.2881 283.984 24.5681 286.054 25.9581C283.954 26.6981 288.204 28.3581 289.104 29.4481C289.844 30.3381 289.764 32.1781 290.294 32.7081C290.894 33.2881 297.484 34.7681 299.044 35.9581C299.374 36.2881 299.714 36.6281 300.044 36.9581C300.164 37.0781 300.304 38.8481 301.444 40.0081C306.574 45.2681 319.164 50.8781 311.044 58.9581C310.914 58.7581 310.334 58.2281 310.044 57.9581C309.784 53.4381 305.494 53.1581 305.214 52.8481C304.744 52.3381 304.964 47.4181 304.024 45.9681C296.094 49.0381 296.274 40.2481 292.014 36.4981L279.054 31.9581C278.684 31.6681 278.414 31.2481 278.054 30.9581C275.134 28.6081 276.024 28.7781 272.054 26.9581C271.774 26.8281 271.324 27.0881 271.054 26.9581L262.794 21.9181C261.724 19.1881 260.664 20.3781 259.054 19.9581C247.214 16.8381 236.434 12.8981 224.054 10.9581C220.434 10.3881 215.224 9.18808 212.054 8.95808C211.014 7.29808 208.264 7.95808 206.564 7.93808C199.344 7.85808 190.924 7.18808 184.054 8.95808C181.034 9.27808 177.674 11.7881 177.304 11.8881C173.284 12.9181 168.524 12.4081 164.814 13.2081C131.834 20.3581 102.474 40.7081 82.0638 66.9581C66.1238 87.4481 56.1938 112.488 53.0638 137.958C51.5638 150.188 50.5738 161.748 52.1838 174.338C54.8538 195.198 62.9238 219.578 77.7638 234.798C87.2438 234.058 96.6438 233.268 106.064 231.958C132.834 228.238 159.584 220.828 185.064 211.958C185.774 213.548 187.794 212.808 189.064 212.958C188.914 213.458 189.124 214.318 189.064 214.948H193.064V215.958C178.424 223.138 152.904 232.128 136.064 233.958C130.734 234.538 125.404 236.208 120.064 236.958L62.0638 240.958C59.1738 240.758 56.8238 240.298 54.0638 239.958C52.7638 239.798 51.3738 240.068 50.0638 239.958C44.0938 239.448 39.1238 238.058 33.3938 235.128C24.4338 230.548 21.5338 222.648 24.0638 212.958C25.2838 208.288 28.9538 203.158 32.0938 199.488C38.1338 192.428 47.3838 190.118 43.5538 178.948C39.7738 179.648 36.5238 182.538 33.5938 184.988C25.5038 191.748 13.6738 204.188 10.0638 213.958C0.59379 239.648 21.2138 249.418 42.0138 255.508C46.0838 256.698 53.3638 258.968 57.5138 258.998C59.9538 259.018 62.5538 257.518 65.6038 257.868C67.5038 258.088 66.0138 259.698 70.0638 259.968H117.054L111.064 263.968C110.104 264.098 109.024 263.838 108.064 263.968C102.524 260.108 99.8238 258.948 98.0338 266.448C98.0338 267.558 99.7738 266.688 100.064 266.968C115.204 281.258 136.464 293.688 156.064 300.968C156.654 303.848 153.184 301.958 154.064 304.958C155.724 305.008 157.394 304.918 159.064 304.958C159.024 305.618 159.074 306.298 159.064 306.948H164.064V304.958C162.404 304.908 160.734 304.998 159.064 304.958C159.124 303.888 159.554 302.878 160.064 301.958C160.564 302.138 161.504 301.788 162.064 301.958C162.134 301.978 162.254 302.698 163.064 302.958C163.794 303.188 165.164 302.798 166.064 302.958V304.948C167.114 305.348 167.924 303.968 168.064 303.958C170.424 303.718 171.824 304.888 173.064 304.958C174.624 309.108 178.634 306.018 180.064 305.958C182.694 305.848 185.424 305.888 188.064 305.958V307.958C189.684 308.798 191.624 306.988 192.064 306.958C193.004 306.908 194.134 306.868 195.064 306.958C195.994 307.048 198.544 310.008 198.064 305.958C200.054 305.888 202.064 306.018 204.064 305.958C203.494 308.928 205.614 307.948 207.534 307.968C216.084 308.078 219.724 304.958 228.434 309.138C229.894 309.838 231.584 309.588 231.064 311.958C226.614 312.848 224.654 312.838 220.544 312.938C218.884 312.978 217.544 313.718 216.064 313.958L181.064 314.958C177.304 314.538 172.824 313.688 169.064 312.958C169.664 309.788 167.464 311.328 165.704 310.868C145.994 305.668 128.944 299.278 111.814 287.928L91.0638 271.958C90.7138 271.638 90.4038 271.278 90.0638 270.958C89.3438 269.248 89.3138 267.408 87.0638 267.958C86.7238 267.628 86.3938 267.288 86.0638 266.958C85.4538 266.358 85.2138 264.978 84.0838 264.468C76.0638 263.598 67.6938 263.848 59.5438 263.938C57.8538 263.958 55.1038 263.298 54.0538 264.958C48.8338 264.388 43.1738 263.278 38.0538 261.958C38.6638 258.958 36.5338 260.228 34.8638 259.698C24.2438 256.288 10.2238 250.818 5.17381 240.338C-3.60619 222.108 5.06381 205.358 17.0538 191.468C20.5738 187.388 26.4738 183.878 29.0438 178.958C29.3938 178.648 29.6838 178.268 30.0438 177.958L43.8838 168.298C39.9938 90.6981 87.5938 26.0581 162.044 5.95808C165.864 4.92808 170.764 3.46808 175.044 2.95808C195.434 0.508081 215.844 2.16808 236.044 4.95808H236.054ZM309.054 47.9581H307.064V49.9481H309.054V47.9581ZM64.0538 232.958C61.9238 227.868 58.0438 222.668 55.8538 217.658C54.4138 214.348 49.5638 196.518 47.4538 196.028C43.4738 197.258 39.2038 201.778 36.6338 205.038C18.3338 228.388 45.1438 233.348 63.5738 235.938C64.3438 236.118 64.1438 234.738 64.0538 233.958C64.0138 233.598 64.1538 233.178 64.0538 232.958ZM172.054 306.968H168.064V307.948H172.054V306.968Z" fill="#2D184F"/>
<path d="M189.054 212.958C189.704 210.728 196.634 208.718 199.054 208.958V213.958L197.084 211.458L194.064 210.958L193.054 214.968V212.978C191.744 212.858 190.354 213.128 189.054 212.978V212.958Z" fill="#2D184F"/>
<path d="M162.054 5.9581C87.6138 26.0581 40.0038 90.6981 43.8938 168.298L30.0538 177.958C33.7938 174.678 37.3538 171.758 41.3938 168.718C39.2038 101.538 76.5138 38.8581 138.074 12.4681C145.404 9.3281 154.014 6.0581 162.064 5.9581H162.054Z" fill="#24174B"/>
<path d="M236.054 4.95809C215.854 2.16809 195.444 0.508086 175.054 2.95809C176.604 1.70809 179.704 1.29809 181.674 1.07809C196.694 -0.601914 213.354 -0.391914 228.274 2.22809C230.164 2.55809 234.944 3.25809 236.044 4.95809H236.054Z" fill="#24174B"/>
<path d="M216.054 313.958C202.774 316.068 194.574 316.468 181.054 314.958L216.054 313.958Z" fill="#24174B"/>
<path d="M86.0538 266.958C75.4938 265.308 64.7938 266.128 54.0538 264.958C55.0938 263.298 57.8539 263.958 59.5439 263.938C67.6839 263.848 76.0539 263.598 84.0839 264.468C85.2139 264.978 85.4538 266.358 86.0638 266.958H86.0538Z" fill="#24174B"/>
<path d="M29.0538 178.958C26.4838 183.868 20.5738 187.388 17.0638 191.468C5.0738 205.358 -3.59617 222.108 5.18383 240.338C10.2338 250.818 24.2538 256.288 34.8738 259.698C36.5438 260.228 38.6738 258.968 38.0638 261.958C-6.96619 250.328 -10.6862 219.218 19.7438 187.078C22.6738 183.978 26.0238 181.658 29.0638 178.958H29.0538Z" fill="#24174B"/>
<path d="M237.054 4.9581C252.714 7.3381 266.444 13.7281 280.054 21.9581L237.054 4.9581Z" fill="#24174B"/>
<path d="M91.0538 271.958L111.804 287.928C128.934 299.278 145.984 305.668 165.694 310.868C167.454 311.328 169.654 309.788 169.054 312.958C138.934 307.108 113.294 292.528 91.0538 271.958Z" fill="#24174B"/>
<path d="M286.054 25.9581C291.104 29.3481 294.744 31.6281 299.054 35.9581C297.484 34.7581 290.894 33.2881 290.304 32.7081C289.774 32.1881 289.854 30.3481 289.114 29.4481C288.214 28.3581 283.954 26.6981 286.064 25.9581H286.054Z" fill="#24174B"/>
<path d="M87.0538 267.958C89.3038 267.408 89.3338 269.248 90.0538 270.958C88.9638 269.938 88.0838 268.968 87.0538 267.958Z" fill="#24174B"/>
<path d="M259.054 19.9581C262.044 23.2181 267.104 25.0881 271.054 26.9581C271.324 27.0881 271.774 26.8281 272.054 26.9581L278.054 30.9581C278.414 31.2481 278.684 31.6681 279.054 31.9581C284.224 35.9481 293.654 41.5981 297.594 45.9481C298.854 47.3481 298.554 47.6081 299.054 48.9581C309.994 78.7081 295.034 100.228 269.414 113.818C246.454 125.998 219.824 125.838 201.544 147.948C192.524 158.858 187.824 176.448 196.644 188.878C199.274 192.578 207.734 199.628 212.054 199.968C212.644 202.608 210.674 201.868 209.144 202.508C201.174 205.808 193.194 209.138 185.054 211.968C159.574 220.838 132.824 228.248 106.054 231.968C100.084 226.808 94.3138 214.018 94.1238 206.358C93.4038 177.478 149.184 159.468 166.104 141.528C179.074 127.778 179.544 109.528 157.424 107.088C117.624 102.708 92.4939 135.878 55.4739 137.878L54.0439 138.708L53.0538 137.968C56.1838 112.498 66.1138 87.4581 82.0538 66.9681C88.3938 72.5081 98.5338 69.4881 106.054 71.9681C106.454 79.5981 116.274 78.6481 121.864 77.2781C123.224 76.9481 132.034 72.7181 133.054 71.9681C137.554 72.8781 143.404 71.3381 147.874 70.2881C168.174 65.4981 213.954 50.1481 222.764 30.1781C225.594 23.7681 226.014 17.8581 224.064 10.9781C236.444 12.9181 247.224 16.8581 259.064 19.9781L259.054 19.9581ZM250.284 76.7181C251.264 77.1981 258.684 75.9781 260.094 75.4981C266.894 73.1781 271.444 61.3081 264.404 56.1081C253.044 47.6981 238.734 63.3081 246.024 72.4881C246.324 72.8681 250.014 76.5881 250.274 76.7181H250.284ZM222.764 89.1381C218.594 90.3881 218.464 98.8381 225.354 96.7781C229.524 95.5281 229.654 87.0781 222.764 89.1381ZM90.7139 95.1781C85.6239 95.6381 84.4839 104.198 89.5939 105.008C96.9539 106.178 96.9139 94.6081 90.7139 95.1781Z" fill="#1863B3"/>
<path d="M299.054 195.958L344.044 165.968C341.934 188.438 337.154 209.568 325.854 229.268C300.594 273.308 255.724 304.448 204.044 305.958C202.044 306.018 200.034 305.888 198.044 305.958C196.944 305.998 195.524 305.658 195.044 306.958C194.114 306.868 192.984 306.908 192.044 306.958C191.354 305.458 189.364 305.988 188.044 305.958C185.404 305.888 182.674 305.848 180.044 305.958C178.234 303.628 174.494 305.038 173.044 304.958C171.804 304.888 170.404 303.718 168.044 303.958L166.044 302.958C165.144 302.798 163.774 303.188 163.044 302.958L162.044 301.958C161.484 301.788 160.544 302.138 160.044 301.958C158.374 301.358 156.854 301.258 156.044 300.958C136.444 293.678 115.184 281.248 100.044 266.958C100.264 266.088 100.764 265.368 101.694 265.148C103.164 264.798 106.564 264.148 108.044 263.958C109.004 263.828 110.084 264.088 111.044 263.958C125.384 262.088 138.974 260.328 153.044 256.958C154.794 259.858 157.954 260.708 161.004 261.498C196.684 270.768 251.264 254.658 277.574 228.978C286.704 220.068 295.704 208.438 299.044 195.948L299.054 195.958ZM310.814 226.198C305.764 221.148 295.454 230.508 302.094 236.418C308.204 241.848 315.854 231.248 310.814 226.198ZM276.884 252.208C265.044 252.678 229.534 267.208 228.004 280.418C227.184 287.508 233.604 292.528 240.444 291.908C251.714 290.878 270.534 279.958 278.084 271.468C283.604 265.258 290.944 251.648 276.894 252.208H276.884ZM200.064 286.948L193.484 287.888C192.294 293.838 194.614 295.428 199.924 292.808L200.064 286.948Z" fill="#08307B"/>
<path d="M310.054 57.9581C310.344 58.2281 310.924 58.7581 311.054 58.9581C313.924 63.4681 317.234 68.5481 320.054 72.9581L319.064 73.4681V74.9481H321.054C321.504 75.6781 321.734 76.4181 322.054 76.9481C319.714 80.6881 323.564 84.8381 324.044 89.4581C325.174 100.428 324.404 116.348 321.574 126.958C320.104 132.448 317.234 137.408 316.064 142.948C288.964 162.748 257.804 182.888 226.254 195.638C221.824 197.428 216.824 200.328 212.064 199.948C207.744 199.608 199.274 192.568 196.654 188.858C187.834 176.428 192.534 158.838 201.554 147.928C219.834 125.818 246.464 125.978 269.424 113.798C295.044 100.208 310.004 78.6881 299.064 48.9381C303.304 49.7081 305.034 54.2281 307.544 56.9981C308.294 57.8281 309.834 57.7181 310.064 57.9381L310.054 57.9581ZM266.244 148.148C262.614 150.268 264.764 157.098 270.054 154.468C274.874 152.078 269.804 146.068 266.244 148.148Z" fill="#094595"/>
<path d="M363.054 114.958C376.534 99.0781 377.494 82.9481 353.274 80.2381C342.774 79.0581 334.684 83.9081 331.054 70.9781C334.204 70.4181 337.354 69.2581 340.564 68.9881C351.684 68.0481 369.434 69.1481 379.264 74.2581C411.564 91.0481 376.434 127.778 360.064 142.488C293.274 202.498 199.644 240.718 113.544 257.748C105.074 259.428 79.0239 260.568 70.0439 259.978C65.9939 259.708 67.4838 258.098 65.5838 257.878C62.5238 257.528 59.9338 259.028 57.4938 259.008C53.3338 258.978 46.0638 256.718 41.9938 255.518C21.1938 249.428 0.573826 239.658 10.0438 213.968C13.3938 213.518 11.6738 215.198 11.5638 216.978C11.4338 219.118 9.59383 223.858 13.4538 223.918C21.6338 224.048 16.9738 214.318 22.0438 210.458L24.0438 212.968C21.5038 222.658 24.4138 230.558 33.3738 235.138C39.1138 238.068 44.0739 239.448 50.0439 239.968L52.0439 242.958L45.0538 241.968L45.1838 247.828C81.5438 254.018 119.974 247.398 155.264 237.688C217.144 220.658 301.144 180.278 349.064 137.488C351.064 135.698 364.164 122.958 364.584 121.948C365.444 119.878 363.064 117.178 363.044 114.978L363.054 114.958Z" fill="#F89414"/>
<path d="M299.054 195.958C295.714 208.448 286.704 220.078 277.584 228.988C251.274 254.668 196.694 270.768 161.014 261.508C157.964 260.718 154.814 259.868 153.054 256.968C204.604 244.598 253.064 221.658 299.054 195.968V195.958Z" fill="#094595"/>
<path d="M363.054 114.958C363.064 117.158 365.454 119.858 364.594 121.928C364.174 122.938 351.074 135.678 349.074 137.468C301.154 180.258 217.154 220.638 155.274 237.668C119.984 247.378 81.5538 253.998 45.1938 247.808L45.0638 241.948L52.0538 242.938L50.0538 239.948C51.3638 240.058 52.7538 239.788 54.0538 239.948V241.948C56.1938 240.998 59.4638 242.948 60.5538 242.948H92.5538C94.3538 242.948 99.8038 241.288 102.054 240.948C105.984 240.358 110.344 240.338 114.054 238.948C115.274 240.318 118.714 239.068 120.384 238.768C124.564 238.008 128.764 237.198 132.904 236.248C134.664 235.848 136.644 236.778 136.054 233.948C152.894 232.118 178.414 223.128 193.054 215.948C193.524 215.718 195.794 216.198 197.234 215.668C246.764 197.358 328.884 155.208 363.054 114.948V114.958Z" fill="#FCBA27"/>
<path d="M316.054 142.958C317.224 137.418 320.094 132.468 321.564 126.968C324.404 116.358 325.164 100.438 324.034 89.4681C323.554 84.8481 319.704 80.6981 322.044 76.9581C328.864 88.1881 334.354 97.5381 337.774 110.728C338.374 113.058 340.354 121.628 340.054 123.408C339.494 126.798 323.444 138.448 319.764 141.218C318.454 142.198 316.694 142.478 316.044 142.958H316.054Z" fill="#08307B"/>
<path d="M361.664 104.578C361.534 104.808 358.684 108.688 358.504 108.888C355.724 112.008 350.594 114.838 348.064 118.948L340.054 89.4781C340.744 85.8981 359.014 89.0581 362.044 91.4681C366.174 94.7681 363.874 100.688 361.674 104.578H361.664Z" fill="#FDFAED"/>
<path d="M321.054 74.9581H319.064V73.4681L320.054 72.9581C320.524 73.6881 320.724 74.4281 321.054 74.9581Z" fill="#08307B"/>
<path d="M53.0539 137.958L54.0439 138.698L55.4739 137.868C92.4939 135.868 117.624 102.708 157.424 107.078C179.544 109.508 179.064 127.768 166.104 141.518C149.184 159.458 93.4039 177.478 94.1239 206.348C94.3139 213.998 100.084 226.788 106.054 231.958C96.6339 233.268 87.2339 234.058 77.7539 234.798C62.9139 219.578 54.8439 195.198 52.1739 174.338C50.5639 161.748 51.5539 150.188 53.0539 137.958ZM83.6939 151.078C81.0939 151.958 81.1439 157.758 84.5739 158.028C90.5739 158.498 90.9139 148.638 83.6939 151.078Z" fill="#094595"/>
<path d="M212.054 8.95807C215.224 9.18807 220.434 10.3881 224.054 10.9581C226.014 17.8381 225.584 23.7481 222.754 30.1581C213.954 50.1281 168.164 65.4781 147.864 70.2681C143.394 71.3181 137.544 72.8581 133.044 71.9481C142.354 65.0481 157.764 37.3481 134.764 42.1781C125.924 44.0281 105.554 62.4881 106.044 71.9481C98.5238 69.4681 88.3838 72.4881 82.0438 66.9481C102.454 40.7081 131.824 20.3481 164.794 13.1981C168.514 12.3881 173.264 12.9081 177.284 11.8781C177.664 11.7781 181.024 9.26807 184.034 8.94807C191.294 8.17807 204.594 8.40807 212.034 8.94807L212.054 8.95807ZM154.754 21.1181C151.834 21.9481 150.794 26.9481 153.684 27.8781C159.624 29.7881 161.624 19.1581 154.754 21.1181Z" fill="#3492DA"/>
<path d="M64.0538 233.958C55.5238 232.878 45.2138 232.148 37.7238 227.788C23.5938 219.578 37.9738 201.558 48.0538 196.958C49.5238 204.948 52.9238 214.688 56.5738 221.948C58.3738 225.538 63.0338 230.578 64.0638 232.958C64.1638 233.178 64.0238 233.598 64.0638 233.958H64.0538Z" fill="#FDFAED"/>
<path d="M10.0538 213.958C13.6538 204.188 25.4838 191.748 33.5838 184.988C36.5138 182.538 39.7638 179.648 43.5438 178.948C47.3738 190.118 38.1238 192.438 32.0838 199.488C28.9438 203.158 25.2738 208.288 24.0538 212.958L22.0538 210.448C16.9838 214.298 21.6438 224.028 13.4638 223.908C9.60384 223.848 11.4338 219.108 11.5738 216.968C11.6838 215.188 13.4038 213.518 10.0538 213.958Z" fill="#FCBA27"/>
<path d="M120.054 236.958L114.054 238.958C110.344 240.348 105.984 240.368 102.054 240.958L65.4338 242.028C64.2038 242.608 62.4038 240.978 62.0538 240.958L120.054 236.958Z" fill="#24174B"/>
<path d="M62.0538 240.958C62.4038 240.978 64.2038 242.608 65.4338 242.028L102.054 240.958C99.8038 241.298 94.3538 242.958 92.5538 242.958H60.5538C59.4638 242.958 56.1938 241.008 54.0438 241.958V239.958C56.8138 240.298 59.1638 240.758 62.0538 240.958Z" fill="#BBD157"/>
<path d="M279.054 31.9581L292.014 36.4981C296.274 40.2381 296.094 49.0381 304.024 45.9681C304.964 47.4181 304.744 52.3381 305.214 52.8481C305.504 53.1581 309.784 53.4381 310.044 57.9581C309.814 57.7381 308.274 57.8581 307.524 57.0181C305.024 54.2381 303.284 49.7181 299.044 48.9581C298.544 47.6081 298.844 47.3481 297.584 45.9481C293.644 41.5881 284.214 35.9481 279.044 31.9581H279.054Z" fill="#24174B"/>
<path d="M136.054 233.958C136.644 236.778 134.664 235.848 132.904 236.258C128.764 237.208 124.564 238.018 120.384 238.778C118.714 239.078 115.274 240.328 114.054 238.958L120.054 236.958C125.394 236.208 130.724 234.538 136.054 233.958Z" fill="#BBD157"/>
<path d="M64.0538 232.958C63.0338 230.578 58.3638 225.528 56.5638 221.948C52.9238 214.688 49.5138 204.958 48.0438 196.958C37.9738 201.558 23.5938 219.578 37.7138 227.788C45.2038 232.138 55.5138 232.878 64.0438 233.958C64.1338 234.738 64.3338 236.118 63.5638 235.938C45.1338 233.348 18.3238 228.388 36.6238 205.038C39.1838 201.768 43.4638 197.258 47.4438 196.028C49.5538 196.518 54.4038 214.348 55.8438 217.658C58.0338 222.668 61.9138 227.868 64.0438 232.958H64.0538Z" fill="#24174B"/>
<path d="M108.054 263.958C106.574 264.158 103.174 264.798 101.704 265.148C100.774 265.368 100.284 266.078 100.054 266.958C99.7638 266.678 98.0138 267.548 98.0238 266.438C99.8138 258.938 102.514 260.098 108.054 263.958Z" fill="#24174B"/>
<path d="M212.054 8.95809C204.614 8.41809 191.314 8.18809 184.054 8.95809C190.924 7.19809 199.344 7.86809 206.564 7.93809C208.254 7.95809 211.014 7.29809 212.054 8.95809Z" fill="#24174B"/>
<path d="M160.054 301.958C159.544 302.878 159.114 303.888 159.054 304.958C160.714 305.008 162.394 304.918 164.054 304.958V306.948H159.054C159.074 306.288 159.024 305.618 159.054 304.958C157.394 304.908 155.714 304.998 154.054 304.958C153.174 301.958 156.644 303.838 156.054 300.968C156.864 301.268 158.384 301.368 160.054 301.968V301.958Z" fill="#24174B"/>
<path d="M180.054 305.958C178.624 306.018 174.614 309.108 173.054 304.958C174.504 305.038 178.244 303.628 180.054 305.958Z" fill="#24174B"/>
<path d="M192.054 306.958C191.614 306.978 189.674 308.798 188.054 307.958V305.958C189.364 305.988 191.354 305.458 192.054 306.958Z" fill="#24174B"/>
<path d="M198.054 305.958C198.534 310.008 196.004 307.058 195.054 306.958C195.534 305.658 196.954 305.998 198.054 305.958Z" fill="#24174B"/>
<path d="M259.054 19.9581C260.664 20.3781 261.724 19.1881 262.794 21.9181L271.054 26.9581C267.104 25.0881 262.044 23.2181 259.054 19.9581Z" fill="#24174B"/>
<path d="M309.054 47.9581H307.064V49.9481H309.054V47.9581Z" fill="#24174B"/>
<path d="M168.054 303.958C167.914 303.968 167.104 305.348 166.064 304.948V302.958L168.054 303.958Z" fill="#24174B"/>
<path d="M172.054 306.968H168.064V307.948H172.054V306.968Z" fill="#24174B"/>
<path d="M278.054 30.9581L272.054 26.9581C276.024 28.7781 275.134 28.6081 278.054 30.9581Z" fill="#24174B"/>
<path d="M163.054 302.958C162.244 302.698 162.124 301.978 162.054 301.958L163.054 302.958Z" fill="#24174B"/>
<path d="M133.054 71.9581C132.034 72.7181 123.234 76.9381 121.864 77.2681C116.264 78.6381 106.444 79.5781 106.054 71.9581C105.564 62.4981 125.924 44.0381 134.774 42.1881C157.774 37.3681 142.364 65.0581 133.054 71.9581Z" fill="#99E1F4"/>
<path d="M250.284 76.7181C250.014 76.5881 246.334 72.8681 246.034 72.4881C238.744 63.3081 253.044 47.6981 264.414 56.1081C271.444 61.3081 266.904 73.1881 260.104 75.4981C258.694 75.9781 251.274 77.1981 250.294 76.7181H250.284Z" fill="#3492DA"/>
<path d="M90.7138 95.1781C96.9138 94.6181 96.9538 106.178 89.5938 105.008C84.4938 104.198 85.6238 95.6381 90.7138 95.1781Z" fill="#99E1F4"/>
<path d="M222.764 89.1381C229.664 87.0681 229.524 95.5281 225.354 96.7781C218.454 98.8481 218.594 90.3881 222.764 89.1381Z" fill="#3492DA"/>
<path d="M276.884 252.208C290.934 251.648 283.604 265.258 278.074 271.468C270.524 279.958 251.714 290.878 240.434 291.908C233.594 292.528 227.164 287.508 227.994 280.418C229.534 267.208 265.034 252.668 276.874 252.208H276.884Z" fill="#0E489E"/>
<path d="M310.814 226.198C315.854 231.238 308.204 241.838 302.094 236.418C295.454 230.518 305.764 221.148 310.814 226.198Z" fill="#0E489E"/>
<path d="M200.064 286.948L199.924 292.808C194.614 295.418 192.294 293.828 193.484 287.888L200.064 286.948Z" fill="#0E489E"/>
<path d="M266.244 148.148C269.804 146.068 274.874 152.078 270.054 154.468C264.764 157.098 262.614 150.268 266.244 148.148Z" fill="#1863B3"/>
<path d="M83.6939 151.078C90.9139 148.638 90.5739 158.498 84.5739 158.028C81.1339 157.758 81.0839 151.958 83.6939 151.078Z" fill="#1863B3"/>
<path d="M154.754 21.1181C161.614 19.1581 159.624 29.7881 153.684 27.8781C150.794 26.9481 151.834 21.9481 154.754 21.1181Z" fill="#99E1F4"/>
</g>
<defs>
<clipPath id="clip0_4_453">
<rect width="401" height="316" fill="white"/>
</clipPath>
</defs>
</svg>
